<svg width="423" height="188" fill="none" xmlns="http://www.w3.org/2000/svg"><path d="M26.223 40.356c-2.648-.528-4.916-1.574-6.802-3.14-1.855-1.558-3.191-3.456-4.01-5.692-.813-2.269-.99-4.683-.533-7.242.458-2.56 1.454-4.723 2.989-6.49a12.11 12.11 0 015.7-3.758c2.297-.731 4.77-.833 7.418-.305 2.354.469 4.36 1.362 6.021 2.678 1.693 1.323 2.885 2.988 3.576 4.994l-3.993 1.6c-.595-1.41-1.44-2.547-2.539-3.411-1.098-.865-2.382-1.444-3.853-1.737-1.7-.338-3.304-.267-4.812.214-1.476.487-2.732 1.358-3.769 2.613-.998 1.228-1.659 2.745-1.981 4.55-.329 1.837-.244 3.536.256 5.097.538 1.534 1.41 2.813 2.615 3.834 1.238 1.029 2.707 1.712 4.407 2.051 1.471.293 2.867.248 4.188-.134 1.321-.382 2.502-1.116 3.542-2.2l3.175 2.978c-1.336 1.603-3.024 2.71-5.064 3.324-2 .586-4.178.645-6.531.176zM51.355 22.58c1.087-1.347 2.502-2.254 4.245-2.723 1.743-.468 3.758-.474 6.047-.018l-.82 4.577a9.379 9.379 0 00-1.07-.264c-2.549-.508-4.697-.137-6.444 1.111-1.709 1.223-2.815 3.245-3.32 6.067L47.67 44.324l-4.707-.938L47.627 17.3l4.512.9-.784 4.38zm36.939 16.485c-.065.361-.182.83-.353 1.408L66.855 36.27c-.116 2.355.55 4.408 1.997 6.158 1.486 1.723 3.504 2.839 6.054 3.347 3.105.619 5.794.067 8.066-1.655l2.053 3.57c-1.424 1.143-3.083 1.9-4.977 2.27-1.862.377-3.871.35-6.029-.08-2.746-.547-5.082-1.59-7.007-3.13-1.92-1.571-3.286-3.492-4.099-5.76-.78-2.263-.941-4.674-.484-7.233.452-2.527 1.416-4.697 2.891-6.51 1.508-1.806 3.343-3.071 5.504-3.796 2.2-.751 4.541-.88 7.026-.384 2.484.495 4.588 1.51 6.312 3.042 1.761 1.506 3 3.384 3.715 5.634.747 2.256.886 4.696.417 7.321zm-11.157-12.01c-2.256-.45-4.275-.139-6.058.933-1.75 1.079-2.956 2.708-3.616 4.887l16.672 3.322c.131-2.25-.448-4.218-1.738-5.902-1.251-1.71-3.005-2.79-5.26-3.24zm28.842 1.619c3.596.716 6.184 2.15 7.763 4.3 1.612 2.156 2.104 4.99 1.476 8.5l-2.817 15.75-4.462-.89.616-3.444c-1.002 1.057-2.297 1.768-3.885 2.13-1.55.338-3.322.307-5.316-.09-2.91-.58-5.121-1.751-6.634-3.514-1.48-1.756-2.015-3.783-1.604-6.08.41-2.297 1.573-3.968 3.487-5.014 1.92-1.078 4.693-1.256 8.322-.533l7.453 1.485.168-.935c.364-2.034.054-3.71-.929-5.027-.984-1.318-2.619-2.204-4.908-2.66a13.506 13.506 0 00-4.652-.112c-1.559.199-2.921.624-4.087 1.275l-1.328-3.934c1.534-.816 3.282-1.317 5.246-1.504 1.969-.219 3.999-.12 6.091.297zm-5.189 22.77c1.798.358 3.421.274 4.869-.253 1.455-.56 2.608-1.52 3.461-2.878l.651-3.643-7.257-1.446c-3.989-.795-6.223.153-6.704 2.844-.235 1.312.087 2.447.965 3.404.878.956 2.217 1.614 4.015 1.972zm35.208 8.902c-.792.454-1.724.744-2.796.87a11.332 11.332 0 01-3.218-.182c-2.615-.521-4.516-1.63-5.702-3.328s-1.544-3.859-1.075-6.484l2.562-14.323-4.413-.88.695-3.887 4.414.879 1.021-5.71 4.707.939-1.021 5.71 7.453 1.484-.695 3.889-7.453-1.486-2.527 14.126c-.252 1.411-.103 2.562.449 3.454.584.898 1.53 1.477 2.838 1.738 1.438.286 2.737.12 3.897-.498l.864 3.69zm10.084-23.426l4.707.938-4.665 26.087-4.708-.939 4.666-26.086zm3.252-4.55c-.916-.183-1.631-.632-2.147-1.346a3.053 3.053 0 01-.495-2.342c.153-.853.576-1.516 1.27-1.99.733-.5 1.557-.658 2.472-.475.915.182 1.614.627 2.097 1.335.521.682.706 1.45.553 2.302-.158.886-.604 1.579-1.336 2.079-.694.473-1.499.618-2.414.436zm33.441 11.863l-16.042 23.819-4.805-.958-6.711-28.353 4.904.977 5.183 22.697 12.862-19.1 4.609.918zm24.804 18.604c-.064.36-.182.83-.353 1.407l-21.086-4.202c-.116 2.356.549 4.409 1.997 6.158 1.486 1.724 3.504 2.84 6.054 3.347 3.105.62 5.794.068 8.066-1.654l2.053 3.57c-1.423 1.143-3.082 1.9-4.977 2.27-1.861.376-3.871.35-6.029-.08-2.746-.548-5.081-1.59-7.007-3.13-1.919-1.572-3.285-3.492-4.098-5.761-.781-2.263-.942-4.673-.484-7.233.452-2.526 1.415-4.696 2.891-6.509 1.508-1.806 3.342-3.072 5.503-3.797 2.2-.75 4.542-.879 7.026-.383 2.485.495 4.588 1.508 6.312 3.041 1.762 1.507 3 3.385 3.715 5.634.748 2.256.887 4.697.417 7.322zm-11.157-12.01c-2.256-.45-4.275-.14-6.058.933-1.75 1.078-2.956 2.707-3.616 4.886l16.672 3.323c.132-2.25-.447-4.218-1.737-5.903-1.252-1.71-3.005-2.79-5.261-3.24zm65.777 8.979c3.269.651 5.681 2.117 7.237 4.398 1.588 2.288 2.048 5.302 1.379 9.042l-2.685 15.012-4.708-.938 2.588-14.47c.452-2.527.204-4.547-.744-6.061-.915-1.508-2.451-2.477-4.609-2.907-2.386-.476-4.417-.099-6.093 1.13-1.67 1.197-2.754 3.19-3.253 5.979l-2.403 13.437-4.708-.939 2.588-14.47c.452-2.526.204-4.547-.744-6.061-.915-1.508-2.451-2.477-4.609-2.907-2.386-.475-4.417-.098-6.093 1.13-1.67 1.197-2.754 3.19-3.253 5.98l-2.403 13.436-4.708-.938 4.666-26.086 4.511.899-.695 3.888c1.188-1.156 2.613-1.926 4.272-2.309 1.666-.416 3.479-.428 5.441-.037 2.027.404 3.751 1.172 5.174 2.305a8.947 8.947 0 012.986 4.316c1.25-1.313 2.818-2.224 4.703-2.732 1.918-.502 3.972-.534 6.163-.097zm25.815 32.72c-2.583-.514-4.801-1.55-6.655-3.11-1.855-1.559-3.191-3.456-4.01-5.692-.78-2.263-.942-4.674-.484-7.233.458-2.56 1.438-4.726 2.94-6.5a12.115 12.115 0 015.7-3.757c2.265-.738 4.688-.85 7.271-.335 2.582.515 4.784 1.548 6.606 3.1a12.48 12.48 0 013.96 5.683c.819 2.236 1 4.634.542 7.193-.458 2.56-1.457 4.74-2.998 6.54-1.502 1.773-3.385 3.029-5.65 3.767-2.233.744-4.64.86-7.222.344zm.739-4.134c1.667.332 3.222.251 4.665-.243a8.218 8.218 0 003.719-2.623c1.004-1.26 1.668-2.794 1.99-4.599.323-1.804.232-3.47-.273-4.999-.5-1.56-1.352-2.852-2.558-3.873-1.172-1.016-2.592-1.69-4.26-2.022-1.667-.332-3.238-.254-4.713.233-1.443.494-2.683 1.369-3.72 2.623-.998 1.229-1.659 2.745-1.981 4.55-.323 1.805-.235 3.487.265 5.048.538 1.535 1.39 2.826 2.557 3.874 1.205 1.022 2.642 1.699 4.309 2.031zm50.358-23.81l-6.532 36.52-4.511-.899.739-4.135a10.096 10.096 0 01-4.561 2.507c-1.737.435-3.57.46-5.499.076-2.517-.501-4.673-1.509-6.467-3.022a12.758 12.758 0 01-3.871-5.614c-.748-2.256-.887-4.696-.418-7.321.47-2.625 1.439-4.828 2.909-6.608a12.047 12.047 0 015.544-3.737c2.193-.719 4.549-.827 7.066-.325 1.863.371 3.515 1.074 4.955 2.109a10.263 10.263 0 013.368 3.882l2.571-14.372 4.707.938zm-19.232 30.013c1.635.326 3.19.245 4.665-.243a8.218 8.218 0 003.719-2.623c1.004-1.261 1.668-2.794 1.991-4.599.322-1.804.231-3.47-.274-4.998-.5-1.561-1.352-2.853-2.558-3.874-1.205-1.022-2.625-1.696-4.259-2.022-1.668-.332-3.239-.254-4.714.233-1.443.494-2.682 1.369-3.719 2.623-.999 1.229-1.659 2.745-1.982 4.55-.323 1.805-.234 3.487.265 5.048.538 1.535 1.391 2.826 2.557 3.874 1.206 1.022 2.642 1.699 4.309 2.031zm47.402.067c-.065.361-.183.83-.354 1.408l-21.085-4.202c-.117 2.356.549 4.408 1.996 6.158 1.487 1.723 3.505 2.839 6.054 3.347 3.106.619 5.795.067 8.066-1.655l2.053 3.57c-1.423 1.143-3.082 1.9-4.976 2.27-1.862.377-3.872.35-6.029-.08-2.746-.547-5.082-1.59-7.007-3.129-1.92-1.572-3.286-3.493-4.099-5.761-.78-2.263-.942-4.674-.484-7.233.452-2.527 1.416-4.696 2.891-6.51 1.508-1.806 3.343-3.071 5.504-3.796 2.199-.751 4.541-.879 7.026-.384 2.484.495 4.588 1.51 6.311 3.042 1.762 1.507 3.001 3.385 3.716 5.634.747 2.256.886 4.696.417 7.321zm-11.157-12.01c-2.256-.45-4.275-.138-6.058.933-1.751 1.079-2.956 2.708-3.617 4.887l16.673 3.322c.131-2.25-.448-4.218-1.738-5.902-1.251-1.71-3.005-2.79-5.26-3.24zm23.78 5.402c1.088-1.347 2.503-2.254 4.245-2.722 1.743-.469 3.758-.475 6.047-.019l-.819 4.577a9.351 9.351 0 00-1.07-.264c-2.55-.508-4.698-.138-6.445 1.112-1.708 1.222-2.815 3.245-3.32 6.067l-2.323 12.993-4.708-.938 4.666-26.086 4.511.9-.784 4.38zm29.971 1.18c3.302.659 5.744 2.148 7.326 4.468 1.621 2.294 2.1 5.295 1.437 9.003l-2.685 15.012-4.707-.938 2.588-14.471c.452-2.526.187-4.55-.793-6.07-.981-1.521-2.599-2.507-4.855-2.956-2.55-.508-4.695-.154-6.436 1.062-1.735 1.184-2.852 3.17-3.351 5.959l-2.403 13.437-4.708-.939 4.666-26.086 4.511.9-.704 3.937c1.188-1.157 2.648-1.936 4.379-2.339 1.764-.396 3.675-.389 5.735.022zm-254.23.973l-6.532 36.521-4.511-.899.739-4.135a10.1 10.1 0 01-4.561 2.506c-1.737.436-3.57.461-5.499.077-2.517-.502-4.673-1.509-6.467-3.022a12.766 12.766 0 01-3.872-5.614c-.747-2.256-.886-4.696-.417-7.321.47-2.625 1.439-4.828 2.909-6.608a12.05 12.05 0 015.543-3.738c2.194-.718 4.549-.826 7.067-.325 1.863.372 3.515 1.075 4.955 2.11a10.267 10.267 0 013.368 3.882l2.57-14.372 4.708.938zm-19.232 30.014c1.635.326 3.189.245 4.665-.243a8.217 8.217 0 003.719-2.623c1.004-1.261 1.668-2.794 1.991-4.599.322-1.804.231-3.471-.274-4.999-.5-1.561-1.352-2.852-2.558-3.874-1.205-1.021-2.625-1.695-4.26-2.021-1.667-.332-3.238-.254-4.713.233-1.443.494-2.683 1.369-3.72 2.623-.998 1.228-1.658 2.745-1.981 4.55-.323 1.804-.235 3.487.265 5.048.538 1.534 1.39 2.826 2.557 3.874 1.206 1.022 2.642 1.699 4.309 2.031zm47.402.067c-.065.361-.183.83-.354 1.408l-21.085-4.202c-.117 2.355.549 4.408 1.996 6.158 1.486 1.723 3.504 2.839 6.054 3.347 3.106.619 5.794.067 8.066-1.655l2.053 3.57c-1.423 1.143-3.082 1.9-4.976 2.27-1.862.377-3.872.35-6.029-.08-2.746-.547-5.082-1.59-7.007-3.129-1.92-1.572-3.286-3.493-4.099-5.762-.78-2.262-.942-4.673-.484-7.232.452-2.527 1.416-4.697 2.891-6.509 1.508-1.807 3.342-3.072 5.503-3.797 2.2-.751 4.542-.879 7.026-.384 2.485.495 4.589 1.509 6.312 3.042 1.762 1.506 3 3.384 3.715 5.634.748 2.256.887 4.696.418 7.321zm-11.158-12.01c-2.255-.45-4.275-.139-6.058.933-1.75 1.079-2.955 2.708-3.616 4.887l16.672 3.322c.132-2.25-.447-4.218-1.737-5.902-1.252-1.711-3.005-2.791-5.261-3.24zm22.788 27.989a23.009 23.009 0 01-5.979-2.059c-1.856-.981-3.261-2.026-4.214-3.133l2.631-3.35c.997 1.049 2.269 1.982 3.816 2.8a17.622 17.622 0 004.82 1.725c4.119.821 6.39.05 6.813-2.313.141-.787-.026-1.466-.499-2.036-.474-.57-1.118-1.038-1.933-1.405-.776-.392-1.909-.873-3.398-1.441-2.034-.746-3.683-1.465-4.947-2.159a8.283 8.283 0 01-2.996-2.839c-.766-1.207-.985-2.728-.656-4.566.423-2.362 1.741-4.054 3.954-5.074 2.22-1.053 4.981-1.25 8.283-.592a22.32 22.32 0 015.083 1.676c1.656.771 2.976 1.629 3.958 2.572l-2.68 3.34c-1.878-1.801-4.256-2.989-7.132-3.562-1.994-.397-3.573-.372-4.737.076-1.163.447-1.842 1.213-2.035 2.296-.153.853.021 1.584.521 2.193.501.61 1.155 1.114 1.964 1.513.842.406 2.021.913 3.537 1.521 2.028.777 3.641 1.507 4.839 2.187a7.716 7.716 0 012.965 2.732c.739 1.167.951 2.636.634 4.408-.423 2.363-1.774 4.047-4.053 5.054-2.24.981-5.093 1.126-8.559.436zm21.831-22.972l4.708.939-4.666 26.086-4.707-.938 4.665-26.087zm3.252-4.551c-.916-.182-1.631-.631-2.146-1.345a3.054 3.054 0 01-.496-2.342c.153-.853.576-1.516 1.27-1.989.733-.5 1.557-.659 2.472-.476.916.182 1.615.627 2.097 1.335.522.682.706 1.449.554 2.302-.159.886-.604 1.579-1.337 2.079-.694.473-1.499.619-2.414.436zm35.305 12.235l-4.032 22.542c-.816 4.561-2.545 7.7-5.188 9.416-2.649 1.749-6.212 2.177-10.691 1.285-2.452-.489-4.728-1.299-6.827-2.431-2.106-1.1-3.734-2.409-4.884-3.93l2.907-3.193c1.022 1.291 2.363 2.408 4.022 3.351a17.382 17.382 0 005.374 2.039c3.04.606 5.409.33 7.105-.827 1.73-1.15 2.859-3.202 3.387-6.155l.369-2.068a10.507 10.507 0 01-4.664 2.231c-1.72.337-3.527.317-5.423-.061-2.485-.495-4.646-1.47-6.486-2.924-1.8-1.48-3.102-3.286-3.906-5.417-.798-2.164-.977-4.476-.537-6.937.441-2.461 1.403-4.529 2.887-6.204a11.572 11.572 0 015.509-3.541c2.215-.646 4.564-.722 7.049-.227 1.961.391 3.711 1.114 5.249 2.168 1.571 1.061 2.769 2.404 3.596 4.03l.722-4.036 4.462.889zm-17.266 18.172c1.699.339 3.284.281 4.754-.174 1.502-.448 2.743-1.237 3.724-2.367 1.019-1.156 1.676-2.555 1.969-4.195.452-2.527-.018-4.728-1.409-6.602-1.386-1.907-3.386-3.121-6.001-3.643-2.648-.527-4.947-.17-6.896 1.073-1.943 1.21-3.14 3.078-3.592 5.605-.294 1.64-.182 3.192.335 4.654a8.67 8.67 0 002.651 3.638c1.244.995 2.732 1.666 4.465 2.011zm40.182-13.86c3.301.658 5.744 2.147 7.326 4.467 1.621 2.294 2.1 5.295 1.437 9.003l-2.685 15.012-4.707-.938 2.588-14.471c.451-2.526.187-4.55-.794-6.07-.98-1.521-2.598-2.506-4.854-2.956-2.55-.508-4.695-.154-6.436 1.062-1.736 1.184-2.853 3.17-3.351 5.959l-2.404 13.437-4.707-.938 4.666-26.086 4.511.899-.704 3.937c1.188-1.156 2.648-1.936 4.379-2.338 1.764-.397 3.675-.389 5.735.021z" fill="#fff"/></svg>