<svg width="542" height="197" fill="none" xmlns="http://www.w3.org/2000/svg"><path d="M27.128 94.924l7.132 36.408-4.52.851-.808-4.122a10.285 10.285 0 01-3.336 4.037c-1.458 1.054-3.153 1.763-5.086 2.127-2.522.474-4.892.344-7.108-.392a12.55 12.55 0 01-5.63-3.774c-1.511-1.819-2.523-4.036-3.036-6.653-.513-2.617-.407-5.028.315-7.233a12.266 12.266 0 013.804-5.549c1.78-1.489 3.932-2.47 6.455-2.945 1.867-.351 3.657-.315 5.37.109a10.088 10.088 0 014.537 2.352L22.41 95.812l4.718-.888zm-7.032 35.105c1.637-.308 3.054-.965 4.25-1.97a8.368 8.368 0 002.51-3.83c.478-1.548.541-3.222.189-5.021-.353-1.799-1.04-3.315-2.063-4.547-1.029-1.265-2.289-2.147-3.78-2.647-1.49-.499-3.054-.595-4.692-.287-1.67.314-3.104.974-4.3 1.979-1.162.999-2 2.276-2.51 3.831-.484 1.515-.55 3.173-.198 4.972.353 1.799 1.044 3.331 2.073 4.596 1.055 1.226 2.315 2.108 3.779 2.646 1.49.5 3.07.593 4.742.278zm41.04-30.718l-7.024 30.982c-.595 2.859-1.54 4.97-2.835 6.334-1.263 1.356-2.942 2.232-5.039 2.627-1.278.24-2.564.262-3.86.064-1.256-.17-2.354-.574-3.294-1.211l1.323-3.912c1.593 1.023 3.274 1.368 5.043 1.035 1.146-.216 2.035-.705 2.667-1.468.671-.737 1.173-1.9 1.508-3.489l.48-1.973-16.584-23.793 4.914-.925L51.6 122.676l4.916-22.496 4.62-.87zm18.26-3.69c3.31-.623 6.119-.151 8.43 1.415 2.337 1.527 3.868 4.139 4.592 7.836l2.932 14.965-4.718.888-2.826-14.426c-.493-2.519-1.47-4.302-2.933-5.35-1.462-1.047-3.323-1.359-5.583-.933-2.556.481-4.423 1.612-5.602 3.394-1.186 1.749-1.506 4.014-.962 6.795L75.35 123.6l-4.717.888-5.094-26.006 4.52-.85.77 3.925c.687-1.52 1.762-2.79 3.227-3.813 1.496-1.027 3.277-1.735 5.34-2.124zm29.024-5.462c3.604-.678 6.529-.313 8.775 1.096 2.278 1.403 3.761 3.854 4.446 7.354l3.076 15.702-4.471.841-.673-3.434c-.549 1.358-1.497 2.503-2.843 3.434-1.319.893-2.978 1.528-4.976 1.904-2.916.548-5.396.286-7.44-.788-2.012-1.08-3.242-2.765-3.691-5.055-.449-2.289.028-4.278 1.429-5.967 1.396-1.721 3.911-2.923 7.547-3.607l7.469-1.406-.182-.932c-.398-2.028-1.292-3.471-2.682-4.329-1.391-.857-3.233-1.07-5.526-.639a13.58 13.58 0 00-4.367 1.636c-1.378.768-2.492 1.673-3.34 2.714l-2.658-3.163c1.132-1.332 2.577-2.452 4.335-3.36 1.752-.94 3.676-1.607 5.772-2.001zm3.408 23.118c1.802-.339 3.281-1.025 4.438-2.056 1.15-1.065 1.876-2.388 2.177-3.971l-.711-3.631-7.273 1.368c-3.996.752-5.732 2.469-5.206 5.152.256 1.308.966 2.243 2.129 2.804 1.162.562 2.645.673 4.446.334zm49.055-32.99c3.275-.616 6.049-.155 8.321 1.385 2.304 1.534 3.822 4.165 4.552 7.894l2.932 14.966-4.717.887-2.826-14.425c-.494-2.52-1.455-4.306-2.884-5.36-1.397-1.06-3.176-1.386-5.338-.98-2.391.45-4.144 1.56-5.258 3.33-1.12 1.738-1.408 3.996-.863 6.777l2.624 13.395-4.717.888-2.826-14.426c-.494-2.519-1.455-4.305-2.884-5.359-1.397-1.06-3.176-1.386-5.338-.98-2.391.45-4.144 1.56-5.258 3.33-1.12 1.737-1.408 3.996-.863 6.776l2.624 13.396-4.717.887-5.095-26.005 4.521-.851.759 3.876c.688-1.52 1.734-2.768 3.139-3.745 1.399-1.009 3.081-1.698 5.046-2.068 2.031-.382 3.913-.313 5.646.21a8.78 8.78 0 014.337 2.897c.688-1.69 1.817-3.123 3.387-4.3 1.602-1.184 3.501-1.982 5.696-2.395zm19.39-3.394l4.717-.888 5.095 26.006-4.717.887-5.095-26.005zm1.378-5.449c-.917.173-1.744.023-2.482-.448-.705-.478-1.141-1.143-1.308-1.993-.166-.85-.012-1.626.462-2.326.501-.738 1.21-1.194 2.127-1.366.917-.173 1.728-.02 2.433.458.731.438 1.18 1.083 1.347 1.934a3.112 3.112 0 01-.491 2.433c-.475.7-1.17 1.136-2.088 1.308zm28.849 27.03c-2.653.5-5.14.374-7.461-.376-2.288-.757-4.217-2.022-5.788-3.795-1.576-1.806-2.614-3.985-3.114-6.537-.5-2.551-.356-4.936.433-7.153a12.328 12.328 0 013.941-5.626c1.873-1.54 4.135-2.559 6.789-3.058 2.359-.444 4.548-.364 6.568.24 2.053.597 3.764 1.7 5.132 3.308l-3.135 2.98c-1.063-1.088-2.261-1.83-3.595-2.223-1.334-.393-2.738-.451-4.212-.174-1.703.32-3.169.986-4.398 1.998-1.195 1.005-2.049 2.285-2.559 3.84-.484 1.515-.55 3.172-.198 4.971.359 1.832 1.053 3.38 2.082 4.645 1.055 1.226 2.328 2.09 3.819 2.589 1.523.493 3.136.58 4.84.26 1.474-.278 2.756-.842 3.846-1.691 1.091-.85 1.924-1.973 2.499-3.37l4.029 1.582c-.663 1.99-1.832 3.651-3.507 4.984-1.648 1.294-3.652 2.163-6.011 2.607zm37.386-7.034c-2.129.4-4.231.508-6.305.321-2.081-.219-3.765-.665-5.052-1.339l1.235-4.099c1.307.603 2.827.995 4.561 1.177 1.734.183 3.437.117 5.107-.198 4.128-.776 5.961-2.342 5.5-4.698-.154-.785-.554-1.354-1.201-1.707s-1.415-.548-2.305-.584c-.864-.075-2.091-.098-3.682-.07-2.161.068-3.954.015-5.381-.158a8.149 8.149 0 01-3.813-1.52c-1.149-.836-1.903-2.17-2.261-4.001-.462-2.356.152-4.421 1.842-6.198 1.684-1.809 4.18-3.025 7.489-3.647a22.23 22.23 0 015.333-.343c1.82.099 3.357.403 4.612.913l-1.285 4.108c-2.398-.973-5.039-1.188-7.921-.646-1.999.376-3.458.99-4.378 1.842-.92.851-1.274 1.816-1.063 2.896.167.85.593 1.466 1.279 1.845.686.38 1.477.604 2.373.673.93.063 2.209.093 3.839.092 2.167-.035 3.931.04 5.292.225a7.59 7.59 0 013.745 1.432c1.11.809 1.838 2.096 2.184 3.863.461 2.355-.186 4.427-1.941 6.216-1.73 1.75-4.33 2.951-7.803 3.605zm11.996-29.527l4.717-.888 5.095 26.006-4.717.888-5.095-26.006zm1.378-5.449c-.917.173-1.745.023-2.482-.448-.705-.478-1.141-1.142-1.308-1.993-.166-.85-.013-1.626.462-2.325.5-.739 1.209-1.195 2.126-1.367.918-.173 1.729-.02 2.434.458.731.439 1.18 1.083 1.347 1.934a3.109 3.109 0 01-.492 2.433c-.474.7-1.17 1.136-2.087 1.308zm26.204.005c3.308-.623 6.118-.151 8.429 1.415 2.337 1.527 3.868 4.14 4.592 7.836l2.932 14.965-4.717.888-2.827-14.426c-.493-2.519-1.471-4.302-2.933-5.35-1.462-1.047-3.323-1.358-5.583-.933-2.555.48-4.423 1.612-5.602 3.394-1.186 1.75-1.506 4.015-.961 6.795l2.624 13.395-4.717.888-5.095-26.005 4.521-.851.769 3.925c.687-1.52 1.763-2.79 3.227-3.812 1.497-1.028 3.277-1.736 5.341-2.125zm44.645-8.147l4.402 22.473c.891 4.547.418 8.112-1.42 10.697-1.83 2.617-4.99 4.347-9.478 5.192-2.457.462-4.866.56-7.228.292-2.356-.235-4.344-.845-5.963-1.83l1.549-4.055c1.417.818 3.068 1.356 4.952 1.612 1.924.282 3.835.245 5.735-.113 3.047-.573 5.15-1.715 6.309-3.426 1.192-1.716 1.5-4.047.923-6.99l-.403-2.062a10.698 10.698 0 01-3.532 3.82c-1.477.955-3.165 1.612-5.065 1.97-2.49.468-4.853.37-7.089-.294-2.21-.704-4.074-1.896-5.592-3.578-1.525-1.714-2.527-3.798-3.008-6.251-.481-2.454-.333-4.737.441-6.85a11.782 11.782 0 013.843-5.352c1.826-1.43 3.984-2.378 6.473-2.847 1.966-.37 3.854-.352 5.666.053 1.845.4 3.445 1.2 4.802 2.404l-.789-4.024 4.472-.841zm-9.486 23.356c1.703-.32 3.156-.966 4.358-1.939 1.235-.978 2.104-2.177 2.608-3.594.529-1.456.634-3.002.314-4.638-.494-2.519-1.726-4.39-3.698-5.613-1.979-1.255-4.278-1.637-6.899-1.144-2.653.5-4.661 1.691-6.024 3.576-1.37 1.852-1.808 4.037-1.315 6.556.321 1.635.986 3.037 1.996 4.203a8.508 8.508 0 003.78 2.392c1.517.461 3.143.528 4.88.201zm16.461-35.454l4.718-.888 7.132 36.408-4.717.888-7.133-36.408zm41.875 16.54c.071.36.131.841.181 1.442l-21.129 3.976c.743 2.234 2.104 3.895 4.083 4.98 2.006 1.048 4.286 1.33 6.841.85 3.112-.585 5.413-2.104 6.903-4.555l3.2 2.552c-.91 1.596-2.179 2.92-3.807 3.973-1.595 1.046-3.474 1.773-5.636 2.18-2.752.517-5.301.42-7.648-.291-2.354-.744-4.319-2.02-5.896-3.826-1.544-1.812-2.565-3.994-3.065-6.546-.494-2.518-.382-4.897.334-7.134.75-2.244 1.998-4.107 3.746-5.59 1.774-1.52 3.905-2.515 6.395-2.983 2.49-.469 4.813-.312 6.97.469 2.183.742 4.014 2.026 5.493 3.85 1.511 1.819 2.523 4.037 3.035 6.654zm-14.719-6.998c-2.261.426-4.026 1.47-5.297 3.134-1.237 1.657-1.769 3.623-1.596 5.896l16.707-3.143c-.691-2.143-1.941-3.756-3.75-4.84-1.783-1.123-3.804-1.472-6.064-1.047zm19.56 3.34l13.218-2.487.798 4.073-13.219 2.487-.797-4.072zm32.183-17.197c2.523-.475 4.892-.344 7.108.392a12.185 12.185 0 015.581 3.783c1.538 1.78 2.563 3.978 3.076 6.595.512 2.617.394 5.047-.355 7.291a11.93 11.93 0 01-3.755 5.54c-1.78 1.488-3.932 2.47-6.454 2.944-1.867.352-3.658.315-5.371-.108-1.681-.43-3.196-1.23-4.546-2.401l2.633 13.444-4.717.888-6.959-35.525 4.52-.85.808 4.121a9.879 9.879 0 013.346-3.987c1.457-1.055 3.153-1.764 5.085-2.127zm4 22.498c1.671-.315 3.088-.972 4.251-1.97a8.368 8.368 0 002.51-3.83c.511-1.555.59-3.232.237-5.031-.352-1.8-1.056-3.312-2.111-4.538-1.029-1.265-2.289-2.147-3.78-2.646-1.457-.506-3.022-.602-4.692-.288-1.638.309-3.052.982-4.241 2.02-1.163.998-2.003 2.259-2.52 3.78-.484 1.516-.55 3.173-.198 4.973.353 1.799 1.043 3.33 2.072 4.596a8.557 8.557 0 003.78 2.646c1.49.5 3.054.596 4.692.288zm24.931-27.942c3.603-.678 6.528-.313 8.774 1.096 2.279 1.403 3.761 3.854 4.446 7.355l3.076 15.701-4.471.842-.673-3.435c-.549 1.358-1.497 2.503-2.842 3.435-1.32.892-2.979 1.527-4.977 1.903-2.916.548-5.396.286-7.44-.788-2.012-1.08-3.242-2.765-3.691-5.054-.448-2.29.028-4.28 1.43-5.968 1.395-1.72 3.91-2.923 7.547-3.607l7.468-1.406-.182-.932c-.397-2.028-1.292-3.471-2.682-4.329-1.391-.857-3.233-1.07-5.526-.639-1.54.29-2.995.835-4.367 1.636-1.378.768-2.491 1.673-3.34 2.714l-2.658-3.162c1.132-1.333 2.577-2.453 4.335-3.36 1.752-.94 3.676-1.607 5.773-2.002zm3.408 23.118c1.801-.34 3.28-1.025 4.437-2.056 1.15-1.065 1.876-2.388 2.177-3.971l-.711-3.631-7.273 1.368c-3.996.752-5.732 2.47-5.206 5.152.256 1.308.966 2.243 2.129 2.804 1.163.562 2.645.673 4.447.334zm41.58-31.33l4.403 22.474c.891 4.547.417 8.112-1.42 10.697-1.831 2.617-4.991 4.347-9.479 5.192-2.456.462-4.866.56-7.228.291-2.356-.235-4.343-.844-5.963-1.828l1.549-4.057c1.417.82 3.068 1.356 4.952 1.612 1.924.283 3.836.245 5.736-.112 3.046-.573 5.149-1.715 6.309-3.426 1.192-1.717 1.499-4.047.923-6.991l-.404-2.06a10.69 10.69 0 01-3.532 3.818c-1.477.956-3.165 1.613-5.065 1.97-2.49.47-4.853.371-7.089-.294-2.209-.703-4.073-1.895-5.592-3.577-1.524-1.714-2.527-3.798-3.008-6.251-.48-2.454-.333-4.737.442-6.85a11.772 11.772 0 013.842-5.353c1.826-1.429 3.984-2.377 6.474-2.846 1.965-.37 3.854-.352 5.665.053 1.845.4 3.445 1.2 4.802 2.404l-.788-4.024 4.471-.841zm-9.486 23.357c1.703-.32 3.156-.967 4.358-1.939 1.235-.979 2.104-2.177 2.608-3.594.53-1.456.634-3.002.314-4.638-.493-2.519-1.726-4.39-3.698-5.613-1.978-1.256-4.278-1.637-6.898-1.144-2.654.5-4.662 1.691-6.025 3.576-1.37 1.852-1.808 4.037-1.314 6.556.32 1.635.985 3.036 1.995 4.203a8.509 8.509 0 003.78 2.392c1.517.461 3.144.528 4.88.201zm44.613-16.331c.07.36.13.84.18 1.441l-21.129 3.976c.743 2.235 2.105 3.895 4.084 4.98 2.005 1.048 4.285 1.331 6.84.85 3.112-.585 5.413-2.104 6.903-4.555l3.2 2.553c-.91 1.595-2.179 2.92-3.807 3.972-1.595 1.046-3.474 1.773-5.636 2.18-2.751.518-5.301.42-7.648-.29-2.354-.745-4.319-2.02-5.895-3.826-1.544-1.813-2.566-3.995-3.066-6.546-.493-2.519-.382-4.897.335-7.135.749-2.244 1.997-4.107 3.745-5.589 1.774-1.52 3.906-2.515 6.395-2.984 2.49-.468 4.813-.312 6.97.47 2.184.742 4.015 2.025 5.493 3.85 1.511 1.818 2.523 4.036 3.036 6.653zm-14.72-6.998c-2.26.425-4.026 1.47-5.296 3.133-1.238 1.657-1.77 3.623-1.596 5.897l16.706-3.144c-.691-2.142-1.941-3.756-3.75-4.84-1.782-1.123-3.804-1.472-6.064-1.047zM235.885 155.766c-2.13.401-4.232.508-6.306.321-2.081-.218-3.765-.665-5.052-1.338l1.235-4.099c1.307.602 2.828.994 4.562 1.176a17.54 17.54 0 005.107-.197c4.127-.777 5.96-2.343 5.499-4.698-.154-.785-.554-1.355-1.201-1.708-.646-.353-1.415-.547-2.305-.583-.864-.075-2.091-.099-3.682-.071-2.161.068-3.954.015-5.381-.157a8.16 8.16 0 01-3.813-1.521c-1.149-.836-1.902-2.169-2.261-4.001-.462-2.355.153-4.421 1.843-6.198 1.683-1.809 4.179-3.025 7.488-3.647a22.195 22.195 0 015.333-.342c1.82.098 3.357.402 4.612.912l-1.284 4.109c-2.399-.974-5.039-1.189-7.922-.646-1.998.376-3.458.989-4.378 1.841-.92.851-1.274 1.817-1.063 2.896.167.851.593 1.466 1.279 1.846.686.379 1.477.603 2.374.672.929.063 2.209.093 3.839.092 2.167-.035 3.931.04 5.292.225a7.596 7.596 0 013.745 1.432c1.109.809 1.837 2.096 2.183 3.863.461 2.355-.186 4.427-1.941 6.216-1.729 1.75-4.33 2.951-7.802 3.605zm11.995-29.527l4.717-.888 5.095 26.006-4.717.888-5.095-26.006zm1.378-5.449c-.917.173-1.744.023-2.482-.448-.705-.478-1.141-1.142-1.308-1.993-.166-.85-.012-1.625.462-2.325.501-.739 1.209-1.194 2.127-1.367.917-.173 1.728-.02 2.433.458.731.439 1.18 1.084 1.347 1.934a3.113 3.113 0 01-.491 2.433c-.475.7-1.171 1.136-2.088 1.308zm31.786 24.596c-.573.718-1.335 1.336-2.286 1.855-.958.485-1.978.83-3.059 1.033-2.62.493-4.789.172-6.506-.963-1.717-1.136-2.832-3.012-3.344-5.629l-2.798-14.278-4.422.832-.759-3.877 4.422-.832-1.115-5.692 4.717-.887 1.115 5.692 7.469-1.406.76 3.876-7.469 1.406 2.758 14.082c.276 1.407.831 2.422 1.667 3.044.868.617 1.957.802 3.267.556 1.442-.271 2.59-.912 3.445-1.92l2.138 3.108zm26.156-16.674c.07.36.13.84.18 1.441l-21.129 3.976c.743 2.234 2.104 3.895 4.083 4.981 2.006 1.047 4.286 1.33 6.841.849 3.112-.585 5.413-2.104 6.903-4.555l3.2 2.552c-.91 1.596-2.179 2.92-3.807 3.973-1.595 1.046-3.474 1.773-5.636 2.18-2.751.517-5.301.421-7.648-.291-2.354-.744-4.319-2.019-5.895-3.826-1.544-1.812-2.566-3.994-3.066-6.545-.493-2.519-.382-4.897.335-7.135.749-2.244 1.997-4.107 3.745-5.589 1.774-1.521 3.906-2.516 6.395-2.984 2.49-.469 4.813-.312 6.97.469 2.184.742 4.015 2.026 5.493 3.851 1.511 1.818 2.523 4.036 3.036 6.653zm-14.72-6.999c-2.26.426-4.026 1.47-5.296 3.134-1.238 1.657-1.77 3.623-1.596 5.896l16.706-3.143c-.691-2.143-1.941-3.756-3.75-4.84-1.782-1.123-3.804-1.472-6.064-1.047zm31.315 17.511a22.844 22.844 0 01-6.306.321c-2.081-.218-3.764-.665-5.051-1.338l1.235-4.099c1.306.602 2.827.994 4.561 1.176a17.54 17.54 0 005.107-.197c4.128-.777 5.961-2.343 5.499-4.698-.154-.785-.554-1.355-1.2-1.708-.647-.353-1.415-.547-2.306-.583-.863-.075-2.091-.099-3.682-.071-2.16.068-3.954.015-5.38-.157a8.159 8.159 0 01-3.814-1.521c-1.148-.836-1.902-2.169-2.261-4.001-.461-2.355.153-4.421 1.843-6.198 1.683-1.809 4.18-3.025 7.488-3.647a22.2 22.2 0 015.334-.342c1.819.098 3.356.402 4.611.912l-1.284 4.109c-2.398-.974-5.039-1.189-7.922-.646-1.998.376-3.457.989-4.377 1.841-.92.851-1.275 1.817-1.063 2.896.166.851.593 1.466 1.278 1.846.686.379 1.477.603 2.374.672.929.063 2.209.093 3.839.092 2.167-.035 3.931.04 5.292.225a7.596 7.596 0 013.745 1.432c1.109.809 1.837 2.096 2.183 3.863.462 2.355-.185 4.427-1.941 6.216-1.729 1.75-4.33 2.951-7.802 3.605z" fill="#fff"/></svg>