<svg width="168" height="158" fill="none" xmlns="http://www.w3.org/2000/svg"><path d="M21.189 61.346c-2.517 1.372-3.107 3.456-1.77 6.253l.992 2.075 6.762-3.684 1.704 3.563-6.674 3.636 9.729 20.344-4.215 2.296-9.729-20.343-3.951 2.153-1.705-3.564 3.952-2.153-1.014-2.12c-1.136-2.375-1.361-4.622-.676-6.739.685-2.117 2.242-3.837 4.671-5.16.937-.51 1.873-.869 2.807-1.075.935-.206 1.803-.243 2.604-.11l.301 3.986c-1.325-.226-2.588-.011-3.788.642zm19.434 2.376c.07-1.782.65-3.424 1.74-4.927 1.089-1.504 2.658-2.813 4.707-3.93l2.006 4.195a9.292 9.292 0 00-.988.482c-2.283 1.244-3.745 2.931-4.386 5.062-.627 2.085-.322 4.42.915 7.007l5.695 11.908-4.215 2.296-11.433-23.907 4.04-2.2 1.92 4.014zM78.97 53.008c.159.33.338.783.538 1.356L60.628 64.65c1.27 1.962 2.976 3.174 5.116 3.638 2.156.418 4.375.005 6.658-1.239 2.78-1.515 4.56-3.697 5.337-6.547l3.664 1.53c-.45 1.836-1.306 3.516-2.57 5.039-1.236 1.507-2.819 2.786-4.75 3.839-2.46 1.34-4.885 2.016-7.276 2.03-2.406-.016-4.582-.669-6.527-1.959-1.916-1.306-3.435-3.132-4.557-5.478-1.107-2.315-1.61-4.676-1.505-7.083.132-2.423.832-4.624 2.1-6.603 1.282-2.025 3.035-3.644 5.26-4.856 2.225-1.212 4.452-1.762 6.682-1.65 2.246.065 4.297.767 6.154 2.105 1.887 1.322 3.406 3.186 4.556 5.592zm-15.645-2.393c-2.02 1.1-3.415 2.657-4.187 4.67-.742 1.996-.742 4.08.002 6.253l14.928-8.133c-1.197-1.888-2.786-3.088-4.766-3.602-1.965-.559-3.957-.289-5.977.812zm33.953 7.657a22.357 22.357 0 01-5.855 2.224c-2.015.415-3.714.488-5.098.218l.117-4.385c1.384.194 2.916.117 4.595-.229a17.111 17.111 0 004.758-1.74c3.688-2.008 5.015-4.096 3.98-6.261-.346-.722-.868-1.157-1.567-1.307-.699-.15-1.472-.108-2.32.126-.832.188-1.993.537-3.484 1.046-2.017.72-3.72 1.211-5.106 1.474a7.52 7.52 0 01-3.98-.334c-1.294-.47-2.344-1.547-3.149-3.23-1.035-2.166-.984-4.373.154-6.623 1.123-2.28 3.163-4.226 6.12-5.837a21.789 21.789 0 014.934-1.949c1.738-.454 3.263-.622 4.575-.502l-.16 4.409c-2.508-.227-5.049.362-7.625 1.765-1.785.973-3.002 2.015-3.651 3.127-.65 1.112-.737 2.164-.262 3.156.374.782.932 1.255 1.674 1.42.743.163 1.545.143 2.407-.061.891-.22 2.104-.578 3.638-1.072 2.032-.69 3.712-1.15 5.04-1.382 1.344-.277 2.64-.188 3.892.268 1.251.456 2.265 1.495 3.041 3.12 1.036 2.165.955 4.388-.241 6.67-1.182 2.236-3.324 4.199-6.427 5.89zm16.078-39.52c2.957-1.611 5.722-2 8.298-1.166 2.59.787 4.698 2.88 6.323 6.278l6.579 13.757-4.215 2.297-6.342-13.262c-1.107-2.315-2.483-3.764-4.127-4.347-1.643-.583-3.475-.324-5.495.776-2.283 1.244-3.752 2.916-4.408 5.017-.67 2.071-.394 4.385.828 6.94l5.889 12.315-4.215 2.297-16.005-33.47 4.214-2.297 6.191 12.946c.332-1.62 1.049-3.13 2.152-4.527 1.133-1.413 2.577-2.598 4.333-3.555zM55.804 119.76l1.246 29.457-4.303 2.344-21.619-18.357 4.39-2.392 17.16 14.817-1.002-23.62 4.127-2.249zm3.933-2.143l4.215-2.296 11.433 23.907-4.215 2.296-11.433-23.907zm-.093-5.749c-.819.447-1.636.551-2.451.312-.786-.254-1.366-.772-1.74-1.554a3.155 3.155 0 01-.159-2.415c.283-.874.835-1.535 1.654-1.981.82-.447 1.622-.543 2.408-.289.8.208 1.388.703 1.762 1.485.388.812.44 1.655.158 2.53-.268.828-.812 1.466-1.632 1.912zm30.592 19.61c-1.903 1.036-3.854 1.778-5.855 2.223-2.015.416-3.714.489-5.098.219l.117-4.385c1.384.193 2.916.117 4.595-.229a17.085 17.085 0 004.758-1.74c3.688-2.009 5.014-4.096 3.98-6.261-.346-.722-.868-1.158-1.567-1.308-.699-.15-1.472-.108-2.32.127-.832.188-1.993.536-3.484 1.045-2.017.72-3.72 1.212-5.106 1.475a7.518 7.518 0 01-3.98-.335c-1.294-.469-2.344-1.546-3.15-3.23-1.035-2.165-.983-4.373.155-6.623 1.123-2.28 3.163-4.225 6.12-5.836a21.784 21.784 0 014.934-1.949c1.738-.454 3.263-.622 4.575-.502l-.161 4.408c-2.507-.226-5.048.363-7.624 1.766-1.785.973-3.002 2.015-3.652 3.127-.649 1.111-.736 2.163-.261 3.156.374.782.932 1.255 1.674 1.419.743.164 1.545.144 2.407-.06.89-.221 2.103-.578 3.638-1.073 2.032-.69 3.712-1.15 5.04-1.381 1.343-.277 2.64-.188 3.892.268 1.25.455 2.264 1.495 3.041 3.119 1.035 2.165.955 4.389-.242 6.671-1.181 2.235-3.323 4.198-6.426 5.889zm3.76-32.526l4.215-2.296 11.433 23.907-4.215 2.296-11.433-23.907zm-.092-5.749c-.82.447-1.637.55-2.452.313-.786-.255-1.366-.773-1.74-1.555a3.155 3.155 0 01-.159-2.415c.283-.874.835-1.535 1.654-1.981.82-.447 1.623-.543 2.408-.289.8.209 1.388.704 1.762 1.485.388.812.441 1.655.158 2.53-.268.828-.812 1.466-1.631 1.912zm33.884 17.816c-2.312 1.26-4.642 1.866-6.99 1.818-2.347-.048-4.486-.702-6.417-1.962-1.916-1.307-3.435-3.133-4.557-5.478-1.121-2.346-1.609-4.715-1.461-7.107.162-2.439.92-4.672 2.276-6.699 1.34-2.057 3.167-3.715 5.479-4.975 2.313-1.26 4.628-1.858 6.946-1.794 2.333.017 4.458.68 6.374 1.986 1.931 1.26 3.457 3.063 4.579 5.408 1.121 2.346 1.601 4.738 1.439 7.177-.147 2.392-.891 4.617-2.232 6.674-1.311 2.041-3.123 3.692-5.436 4.952zm-1.812-3.789c1.493-.814 2.659-1.885 3.5-3.215a9.128 9.128 0 001.386-4.508c.055-1.66-.313-3.316-1.104-4.97-.791-1.654-1.825-2.93-3.102-3.826-1.292-.926-2.703-1.408-4.234-1.446-1.502-.053-2.999.326-4.492 1.14-1.493.813-2.674 1.892-3.543 3.238-.84 1.33-1.302 2.832-1.386 4.508-.07 1.63.291 3.272 1.082 4.926.791 1.653 1.832 2.944 3.124 3.87 1.306.88 2.718 1.362 4.234 1.446 1.531.038 3.042-.35 4.535-1.163zm20.471-37.138c2.957-1.61 5.723-2 8.298-1.166 2.59.787 4.698 2.88 6.323 6.278l6.579 13.758-4.215 2.296-6.342-13.261c-1.107-2.316-2.482-3.765-4.126-4.348-1.644-.583-3.476-.324-5.496.776-2.283 1.244-3.752 2.917-4.408 5.018-.67 2.07-.394 4.384.828 6.94l5.889 12.315-4.215 2.296-11.432-23.907 4.039-2.2 1.726 3.608c.259-1.696.948-3.265 2.066-4.708 1.147-1.459 2.642-2.69 4.486-3.695z" fill="#fff"/></svg>