<svg width="265" height="160" fill="none" xmlns="http://www.w3.org/2000/svg"><path d="M9.376 108.172l9.028-3.262 16.024 50.519-9.028 3.263-16.024-50.52zm1.43-11.354c-1.755.635-3.41.595-4.964-.118-1.492-.736-2.5-1.93-3.023-3.582-.524-1.653-.404-3.255.362-4.806.808-1.638 2.09-2.774 3.846-3.409 1.756-.634 3.379-.583 4.87.153 1.534.65 2.563 1.8 3.087 3.453.545 1.716.412 3.392-.396 5.03-.766 1.552-2.026 2.645-3.782 3.28zM76.257 61.48l22.434 70.727-8.653 3.127-2.54-8.007c-1.119 3.521-2.983 6.568-5.591 9.139-2.609 2.572-5.763 4.526-9.462 5.863-4.828 1.745-9.497 2.228-14.007 1.449-4.51-.778-8.477-2.709-11.9-5.793-3.382-3.169-5.879-7.296-7.491-12.38-1.613-5.083-1.968-9.948-1.066-14.595.965-4.67 3.017-8.775 6.157-12.318 3.139-3.543 7.123-6.186 11.95-7.931 3.574-1.291 7.088-1.782 10.54-1.471 3.433.247 6.576 1.342 9.43 3.286l-8.83-27.833 9.03-3.263zm-5.6 72.57c3.136-1.132 5.757-2.894 7.864-5.285 2.087-2.454 3.428-5.276 4.023-8.466.576-3.253.309-6.628-.8-10.123-1.108-3.495-2.807-6.316-5.095-8.464-2.31-2.212-4.98-3.584-8.015-4.116-3.034-.533-6.119-.233-9.254.9-3.197 1.156-5.85 2.929-7.957 5.319-2.044 2.368-3.385 5.19-4.023 8.466-.596 3.19-.34 6.533.77 10.028 1.108 3.495 2.816 6.348 5.125 8.56 2.352 2.125 5.023 3.497 8.015 4.116 3.034.532 6.15.221 9.348-.935zm82.245-49.268c.221.699.451 1.643.688 2.832l-40.44 14.614c1.975 4.244 5.026 7.143 9.153 8.698 4.17 1.468 8.7 1.318 13.59-.449 5.956-2.152 10.108-5.919 12.454-11.3l6.859 4.108c-1.41 3.485-3.587 6.538-6.529 9.16-2.879 2.598-6.388 4.646-10.526 6.141-5.267 1.903-10.281 2.511-15.042 1.823-4.78-.752-8.924-2.69-12.431-5.814-3.444-3.147-5.952-7.199-7.524-12.155-1.552-4.893-1.887-9.695-1.005-14.405.944-4.733 2.955-8.86 6.032-12.38 3.119-3.606 7.061-6.27 11.826-7.992 4.765-1.721 9.35-2.139 13.755-1.251 4.447.8 8.33 2.797 11.649 5.99 3.381 3.17 5.878 7.296 7.491 12.38zm-30.446-9.398c-4.326 1.564-7.539 4.212-9.64 7.946-2.037 3.711-2.622 7.818-1.753 12.32l31.977-11.555c-1.852-4.076-4.675-6.916-8.468-8.52-3.751-1.69-7.79-1.754-12.116-.19zm51.502-27.216c6.897-2.493 12.708-2.68 17.433-.563 4.788 2.095 8.26 6.542 10.416 13.342l9.675 30.502-8.558 3.093-2.116-6.672c-.759 2.894-2.348 5.487-4.766 7.778-2.376 2.204-5.476 3.997-9.301 5.379-5.58 2.017-10.496 2.27-14.749.761-4.19-1.531-6.99-4.521-8.401-8.97-1.411-4.448-.941-8.584 1.41-12.409 2.331-3.888 6.977-7.09 13.936-9.604l14.295-5.166-.574-1.81c-1.25-3.94-3.336-6.551-6.258-7.833-2.922-1.281-6.578-1.129-10.967.457-2.947 1.065-5.669 2.615-8.168 4.652-2.52 1.973-4.489 4.136-5.909 6.49l-5.938-5.503c1.905-3.026 4.474-5.725 7.705-8.096 3.211-2.436 6.823-4.378 10.835-5.828zm12.05 45.262c3.449-1.246 6.185-3.085 8.209-5.517 2.004-2.494 3.117-5.376 3.339-8.643l-2.237-7.054-13.92 5.03c-7.649 2.764-10.647 6.752-8.994 11.963.806 2.541 2.413 4.192 4.82 4.951 2.407.76 5.335.516 8.783-.73zm56.659-12.612c-4.075 1.472-8.165 2.348-12.27 2.627-4.124.216-7.525-.149-10.201-1.094l1.464-8.604c2.699.796 5.767 1.104 9.204.924a34.41 34.41 0 009.952-2.003c7.9-2.854 11.125-6.57 9.673-11.145-.483-1.525-1.399-2.54-2.747-3.044-1.348-.505-2.898-.653-4.649-.445-1.709.121-4.117.46-7.225 1.017-4.214.814-7.738 1.273-10.57 1.376a15.31 15.31 0 01-7.82-1.85c-2.443-1.312-4.229-3.748-5.358-7.306-1.451-4.576-.729-8.91 2.166-13.001 2.875-4.156 7.479-7.378 13.812-9.666a43.756 43.756 0 0110.362-2.363c3.585-.375 6.665-.248 9.24.38l-1.558 8.637c-4.922-1.196-10.142-.798-15.659 1.196-3.825 1.382-6.539 3.071-8.142 5.067-1.603 1.996-2.072 4.043-1.407 6.14.524 1.652 1.501 2.75 2.932 3.296 1.431.545 3.032.746 4.804.602 1.833-.167 4.346-.508 7.537-1.024 4.234-.751 7.705-1.155 10.412-1.213 2.75-.144 5.305.42 7.665 1.693 2.361 1.272 4.085 3.623 5.173 7.055 1.452 4.575.667 8.932-2.354 13.069-2.978 4.05-7.79 7.277-14.436 9.679z" fill="#fff"/></svg>