<svg width="60" height="60" fill="none" xmlns="http://www.w3.org/2000/svg"><rect width="60" height="60" rx="5" fill="#E9ECF2"/><path d="M29.8 13.2a16.804 16.804 0 00-15.181 9.6H12.2a.799.799 0 00-.716 1.158l3.2 6.4a.802.802 0 001.432 0l3.2-6.4A.799.799 0 0018.6 22.8h-2.186c2.634-4.897 7.76-8 13.386-8C38.181 14.8 45 21.619 45 30s-6.819 15.2-15.2 15.2a15.141 15.141 0 01-14.093-9.506.801.801 0 00-1.485.6A16.736 16.736 0 0029.8 46.8c9.264 0 16.8-7.536 16.8-16.8 0-9.264-7.536-16.8-16.8-16.8zM15.4 28.21l-1.906-3.81h3.81L15.4 28.21zM33 31.6c0 1.323-1.076 2.4-2.4 2.4v1.2a.8.8 0 11-1.6 0V34h-1.2a.8.8 0 110-1.6h2.8c.44 0 .8-.36.8-.8 0-.44-.36-.8-.8-.8H29a2.403 2.403 0 01-2.4-2.4c0-1.324 1.077-2.4 2.4-2.4v-1.2a.8.8 0 111.6 0V26h1.2a.8.8 0 110 1.6H29c-.44 0-.8.36-.8.8 0 .44.36.8.8.8h1.6c1.323 0 2.4 1.076 2.4 2.4zm-3.2 7.6c-5.074 0-9.2-4.127-9.2-9.2 0-5.074 4.126-9.2 9.2-9.2 5.074 0 9.2 4.126 9.2 9.2 0 5.074-4.126 9.2-9.2 9.2zm0-16.8c-4.19 0-7.6 3.41-7.6 7.6 0 4.19 3.41 7.6 7.6 7.6 4.19 0 7.6-3.41 7.6-7.6 0-4.19-3.41-7.6-7.6-7.6z" fill="#000"/></svg>