<svg width="60" height="60" fill="none" xmlns="http://www.w3.org/2000/svg"><rect width="60" height="60" rx="5" fill="#E9ECF2"/><path d="M11.388 31.935h7.7l1.144 9.372c.045.44.396.748.836.793h.044a.848.848 0 00.836-.66l4.4-17.028 4.665 15.445c.132.395.484.66.924.615a.892.892 0 00.793-.792l.924-8.185h7.92c.485 0 .88-.395.88-.88v-.044c0-.045 0-.133-.044-.176 0-.044 0-.044-.045-.087 0-.045-.045-.088-.045-.133 0 0 0-.044-.044-.044a.619.619 0 01-.133-.176l-.044-.044c-.045-.045-.088-.045-.133-.088h-.044c-2.42-1.275-5.985-4.4-6.425-6.995-.133-.88.087-1.672.747-2.332 1.408-1.496 3.388-.528 4.795.527.308.22.748.22 1.056 0 1.407-1.055 3.344-1.98 4.752-.485.528.573.792 1.188.792 1.936-.044 1.407-1.1 3.124-2.992 4.885-.352.352-.395.88-.045 1.232.353.352.88.395 1.233.045 1.584-1.453 3.475-3.74 3.565-6.116.044-1.187-.396-2.287-1.276-3.167-1.672-1.76-4.047-1.76-6.555-.045-2.552-1.715-4.928-1.672-6.6.045-1.012 1.055-1.452 2.42-1.188 3.827.396 2.376 2.596 4.885 4.84 6.6h-5.673a.901.901 0 00-.88.793l-.528 4.752-4.355-14.387c-.133-.396-.44-.616-.88-.616a.848.848 0 00-.836.66l-4.004 15.576-.705-5.59a.901.901 0 00-.88-.792h-8.492a.882.882 0 00-.88.88c0 .485.397.88.88.88z" fill="#000"/></svg>