<svg width="138" height="26" fill="none" xmlns="http://www.w3.org/2000/svg"><path d="M2.955 20.412a2.854 2.854 0 01-2.487-1.444 2.76 2.76 0 01.078-2.84l5.122-8.045a2.857 2.857 0 012.53-1.374 2.851 2.851 0 012.447 1.508c.477.903.417 1.99-.155 2.837L5.371 19.1a2.855 2.855 0 01-2.416 1.313z" fill="#F62B54"/><path d="M11.742 20.412a2.846 2.846 0 01-2.483-1.44c-.5-.887-.47-1.977.078-2.834l5.113-8.026a2.852 2.852 0 012.53-1.404 2.848 2.848 0 012.464 1.518 2.751 2.751 0 01-.184 2.85l-5.112 8.026a2.851 2.851 0 01-2.406 1.31z" fill="#FC0"/><path d="M20.332 20.48c1.456 0 2.637-1.156 2.637-2.582s-1.18-2.582-2.637-2.582-2.637 1.156-2.637 2.582 1.18 2.582 2.637 2.582z" fill="#00CA72"/><path d="M134.903 15.464c.797 0 1.273.567 1.273 1.495v3.18h1.082v-3.253c0-1.578-.743-2.493-2.141-2.493-.547 0-1.415.15-1.933 1.156a1.773 1.773 0 00-1.451-1.096 2.496 2.496 0 00-.608-.036c-.445.036-1.237.313-1.534.94v-.843h-1.083v5.625h1.083v-3.036c0-1.18.773-1.639 1.547-1.639.725 0 1.201.555 1.201 1.483v3.192h1.077v-3.036c0-.94.564-1.65 1.487-1.639zm-10.37 3.735c.495.01.972-.187 1.319-.545.347-.358.531-.845.513-1.346 0-1.133-.834-1.844-1.832-1.844-1 0-1.832.711-1.832 1.844-.02.5.165.986.51 1.343.345.358.82.557 1.313.548h.009zm0 1.055c-1.583 0-2.903-1.169-2.903-2.952s1.32-2.915 2.903-2.915c1.582 0 2.914 1.132 2.914 2.915 0 1.783-1.339 2.957-2.922 2.957l.008-.005zm-8.476-2.952l-.011.006c0-1.783 1.355-2.915 2.949-2.921a2.86 2.86 0 012.141.903l-.821.699a1.848 1.848 0 00-1.32-.53c-.999 0-1.867.71-1.867 1.843 0 .765.455 1.454 1.152 1.747a1.85 1.85 0 002.035-.41l.833.699a2.877 2.877 0 01-2.153.916c-1.582 0-2.938-1.169-2.938-2.952zm-3.466 1.757a.75.75 0 01.74-.758.747.747 0 01.741.758.75.75 0 01-.741.71.75.75 0 01-.74-.71zm2.961-11.696h-3.854l-2.701 6.965-2.687-6.965h-3.854l4.685 11.005-2.914 7.276h3.826l7.499-18.28zm-23.438 6.121c0 1.759 1.537 2.915 3.046 2.915 1.484 0 2.942-1.076 2.942-2.916 0-1.84-1.458-2.917-2.942-2.917-1.51 0-3.046 1.158-3.046 2.917v.001zm5.988 6.145v-1.392c-.782 1.183-2.605 1.63-3.54 1.63-3.098 0-6.197-2.442-6.197-6.384 0-3.94 3.098-6.382 6.196-6.382.78 0 2.604.26 3.54 1.628V7.368h3.593v12.264l-3.592-.002zm-10.759 0h-3.592v-1.523c-.6 1.128-2.056 1.786-3.567 1.786-3.124 0-5.884-2.495-5.884-6.359 0-3.936 2.76-6.435 5.884-6.435 1.509 0 2.969.63 3.567 1.76V.682h3.592V19.63zm-3.67-6.173c0-1.838-1.328-2.916-2.811-2.916-1.537 0-2.814 1.156-2.814 2.916 0 1.817 1.277 2.967 2.812 2.967 1.512.003 2.813-1.206 2.813-2.967zm-18.255-.317c0-1.864.963-2.495 2.239-2.495 1.223 0 2.108.814 2.108 2.442v6.541h3.619V12.3c0-3.492-1.72-5.2-4.453-5.2-1.432 0-2.863.813-3.514 2.049V7.363H61.8v12.264h3.618V13.14zm-10.965 6.699c-3.436 0-6.303-2.521-6.303-6.383 0-3.864 2.864-6.36 6.303-6.36 3.44 0 6.327 2.496 6.327 6.36 0 3.864-2.891 6.384-6.327 6.384v-.001zm0-3.57c1.508 0 2.76-1.106 2.76-2.812 0-1.655-1.25-2.785-2.76-2.785a2.678 2.678 0 00-1.956.805 2.727 2.727 0 00-.778 1.98c.001 1.708 1.25 2.811 2.734 2.811zm-12.79-5.623c1.067 0 2.005.841 2.005 2.442v6.542h3.593v-6.965c0-3.703-1.801-5.568-4.687-5.568-.857 0-2.472.26-3.644 2.18-.678-1.419-1.979-2.155-3.902-2.155a3.476 3.476 0 00-3.176 2.023v-1.78h-3.62v12.264h3.617V13.14c0-1.864 1.016-2.495 2.109-2.495 1.042 0 1.977.814 2.004 2.364v6.62h3.619V13.14c0-1.783.938-2.493 2.083-2.493z" fill="#333"/></svg>