<svg width="138" height="29" fill="none" xmlns="http://www.w3.org/2000/svg"><path d="M25.56 15.164l.018.001 1.896.198a.53.53 0 01.342.181l.014.017-.018.01a.523.523 0 01.108.396 14.12 14.12 0 01-4.408 8.59 13.654 13.654 0 01-14.175 2.736l-.085-.034a.5.5 0 01-.285-.268l-.008-.02a.518.518 0 01-.009-.388l.748-1.825a.513.513 0 01.649-.297l.017.007a10.73 10.73 0 0011.162-2.143 11.068 11.068 0 003.485-6.71.523.523 0 01.531-.452h.018zm44.77-7.748c1.617 0 2.881.493 3.689 1.44l.026.032v-.801a.45.45 0 01.406-.426l.018-.002h2.157a.45.45 0 01.417.41l.001.018V20.06a7.29 7.29 0 01-1.468 4.696c-1.161 1.414-2.926 2.13-5.245 2.13-3.224 0-5.768-2.04-6.187-4.953a.45.45 0 01.306-.472l.018-.006 2.108-.495a.423.423 0 01.513.351 3.188 3.188 0 003.242 2.814c2.492 0 3.664-1.266 3.687-3.913v-1.13a4.732 4.732 0 01-3.687 1.58c-3.584 0-6.182-2.782-6.182-6.609a6.965 6.965 0 011.702-4.696 5.939 5.939 0 014.48-1.941zM5.42 21.978h.054a1.58 1.58 0 011.562 1.562v.054a1.59 1.59 0 11-1.616-1.616zM107.665 7.249l.111.001c3.853.053 6.24 2.735 6.24 7.028 0 .227-.012.454-.036.68a.419.419 0 01-.397.378h-9.176a3.521 3.521 0 003.571 3.418 3.211 3.211 0 003.278-2.288.423.423 0 01.509-.257l.017.005 1.828.644a.392.392 0 01.231.198l.008.018c.05.1.059.215.023.32a6.03 6.03 0 01-5.894 4.098 6.506 6.506 0 01-4.647-1.887 7.271 7.271 0 01-1.995-5.273c0-4.39 3.156-7.03 6.238-7.082h.091zm-51.824 0h.005c3.921 0 6.357 2.693 6.357 7.03 0 .226-.012.453-.036.679a.414.414 0 01-.397.378h-9.174a3.521 3.521 0 003.584 3.418 3.206 3.206 0 003.278-2.288.418.418 0 01.51-.257l.017.005 1.828.644a.392.392 0 01.238.216.414.414 0 010 .32 6.03 6.03 0 01-5.89 4.098 6.507 6.507 0 01-4.655-1.887 7.286 7.286 0 01-1.995-5.273c0-4.435 3.22-7.083 6.331-7.083zm-13.868-.004c1.76 0 3.183.428 4.237 1.27a4.607 4.607 0 011.517 2.201l.001.004c.036.15-.052.3-.198.344l-.014.004-2.184.72a.41.41 0 01-.302 0 .32.32 0 01-.171-.198l-.012-.043c-.199-.711-.849-1.853-2.874-1.853-1.441 0-2.306.829-2.306 1.63v.032c.011.521.295 1.175 1.538 1.424l.038.008 2.405.45c2.656.535 4.188 1.979 4.218 3.991v.061l-.008-.035v.06c-.04 2.018-1.99 4.14-5.584 4.14-4.21 0-5.862-2.381-6.168-3.786a.302.302 0 01.21-.33l.015-.004 2.251-.702a.382.382 0 01.122 0 .374.374 0 01.165.035l.02.01a.31.31 0 01.166.203c.284 1.35 1.504 2.157 3.26 2.157 1.634 0 2.377-.856 2.377-1.63 0-.766-.647-1.334-1.763-1.569l-.038-.007-2.526-.491c-2.355-.446-3.823-1.91-3.823-3.814 0-2.319 2.49-4.282 5.43-4.282zm90.81-3.75h1.968a.451.451 0 01.423.432v3.714h2.368a.45.45 0 01.419.433l.001.017v1.964l-.001.017a.423.423 0 01-.401.41h-2.386v6.57c0 1.09.432 1.54 1.544 1.54a5.8 5.8 0 00.674-.051l.083-.012a.418.418 0 01.342.094.455.455 0 01.144.303l.001.022v1.85a.425.425 0 01-.302.41 5.854 5.854 0 01-1.593.216h-.073c-2.35 0-3.816-1.496-3.845-3.916V10.51H130.1a.45.45 0 01-.422-.41l-.002-.017V8.109a.45.45 0 01.406-.448l.018-.002h.609c.643-.02 1.631-.28 1.651-1.715v-2a.45.45 0 01.406-.448l.017-.002zM94.54 7.246l.051.002h-.004c2.318 0 4.658 1.616 4.704 5.143l.001.107v8.34a.45.45 0 01-.405.426l-.018.001h-2.157a.45.45 0 01-.422-.41l-.001-.017v-8.131c-.014-1.028-.363-2.68-2.48-2.68-1.566 0-2.68 1.218-2.703 2.99v7.821a.45.45 0 01-.405.426l-.018.001h-2.184a.45.45 0 01-.422-.41V12.77l-.001-.061c-.013-1.028-.363-2.68-2.481-2.68-1.627 0-2.729 1.209-2.75 3.015l-.001.055v7.74a.45.45 0 01-.405.427l-.018.001h-2.157a.45.45 0 01-.418-.41V8.06a.45.45 0 01.4-.425l.018-.002h2.076a.45.45 0 01.422.41v.788a4.848 4.848 0 013.647-1.58 4.308 4.308 0 013.887 2.201 4.877 4.877 0 014.244-2.204zm32.295 1.592a5.957 5.957 0 011.209 3.792l-.002.058v8.15a.451.451 0 01-.401.426l-.018.001h-2.183a.451.451 0 01-.423-.41l-.001-.017v-7.714c0-2.017-.95-3.043-2.751-3.043a2.505 2.505 0 00-2.049.954 3.948 3.948 0 00-.704 2.342l.002.05v7.41a.451.451 0 01-.405.427l-.018.001h-2.18a.45.45 0 01-.422-.41l-.001-.017V8.05a.45.45 0 01.405-.426l.018-.002h2.13c.222.015.398.19.418.41l.001.018v.9a4.686 4.686 0 013.719-1.702 4.557 4.557 0 013.656 1.59zM1.335 15.71H16.84c.285.002.515.23.522.513v1.959a.527.527 0 01-.504.53l-.018.001H1.336a.527.527 0 01-.522-.513v-1.977a.527.527 0 01.503-.512l.019-.001zm69.37-5.601c-2.126 0-3.477 1.513-3.477 3.944s1.333 3.94 3.477 3.94c2.044 0 3.421-1.585 3.421-3.94 0-2.36-1.377-3.944-3.422-3.944zm-18.014 2.63l-.006.049h6.407c-.156-1.712-1.362-2.78-3.169-2.8h-.055a3.152 3.152 0 00-3.171 2.704l-.007.047zm51.83 0l-.006.049h6.408c-.156-1.712-1.363-2.78-3.17-2.8h-.054a3.153 3.153 0 00-3.172 2.704l-.006.047zM18.779.901a.528.528 0 01.302.279.54.54 0 010 .41l-.675 1.8a.513.513 0 01-.653.316 10.726 10.726 0 00-10.357 1.85 11.154 11.154 0 00-3.656 5.827.522.522 0 01-.504.392h-.117l-1.855-.446a.518.518 0 01-.329-.243H.926a.522.522 0 01-.058-.41 14.134 14.134 0 014.705-7.439A13.648 13.648 0 0118.779.901zm-6.866 7.78h15.503c.277.003.505.22.521.495v1.959a.527.527 0 01-.503.531H11.913a.527.527 0 01-.518-.512V9.213a.527.527 0 01.5-.531h.018zm10.762-5.92l.026-.001h.027a1.58 1.58 0 011.563 1.563v.053a1.59 1.59 0 11-1.616-1.616z" fill="#4FB58B"/></svg>