<svg width="60" height="60" fill="none" xmlns="http://www.w3.org/2000/svg"><rect width="60" height="60" rx="5" fill="#E9ECF2"/><path d="M29.997 20.083l-6.569 2.097c-.03 1.734-.105 3.433-.175 5.139-.034.784-.064 1.576-.094 2.344l-.006.087c-.047 1.206-.105 2.8.31 3.855.176.451.47.873.804 1.26.358.408.767.783 1.166 1.13 1.4 1.213 3 2.368 4.558 3.475 1.564-1.107 3.164-2.256 4.558-3.475.398-.345.807-.72 1.165-1.13.34-.387.627-.809.803-1.26.416-1.061.358-2.655.311-3.855l-.006-.087c-.03-.761-.064-1.553-.094-2.344-.07-1.705-.147-3.405-.175-5.14l-6.568-2.096h.012zm-7.37 1.042l7.177-2.29a.61.61 0 01.382 0l7.165 2.284c.258.07.452.31.456.592.024 1.839.105 3.69.182 5.555.034.767.064 1.54.094 2.35l.006.087c.053 1.319.117 3.064-.399 4.36-.234.592-.603 1.13-1.025 1.617-.404.468-.86.884-1.295 1.259-1.547 1.342-3.298 2.59-4.992 3.784l-.011.011a.616.616 0 01-.733.006l-.023-.017c-1.694-1.201-3.445-2.443-4.992-3.784a13.17 13.17 0 01-1.296-1.26c-.421-.485-.79-1.024-1.024-1.617-.51-1.295-.446-3.04-.393-4.359l.007-.087c.03-.803.064-1.577.093-2.35.082-1.863.158-3.71.182-5.555a.622.622 0 01.432-.586h.006z" fill="#000"/><path d="M30.19 15.666l9.873 3.151a.619.619 0 01.433.592c0 3.405.128 6.007.228 8.091.433 8.894.439 9.024-10.37 16.752a.634.634 0 01-.733-.007C18.828 36.525 18.834 36.4 19.26 27.506c.1-2.092.229-4.693.229-8.09 0-.299.21-.55.492-.61l9.825-3.134a.66.66 0 01.38 0l.004-.006zm9.065 4.195l-9.252-2.953-9.251 2.953c-.011 3.147-.135 5.659-.235 7.698-.392 8.133-.404 8.344 9.486 15.416 9.891-7.078 9.878-7.29 9.486-15.416-.1-2.039-.222-4.553-.234-7.698z" fill="#000"/><path d="M34.56 26.662a.623.623 0 01.885 0 .624.624 0 010 .885l-6.509 6.509a.623.623 0 01-.884 0l-3.499-3.498a.623.623 0 010-.885.623.623 0 01.884 0l3.058 3.058 6.07-6.07-.004.001zm-14.752 5.263a.628.628 0 010 1.253h-4.81a.627.627 0 01-.627-.627v-9.426c0-.345.28-.627.626-.627h4.957a.628.628 0 010 1.253h-4.33v8.174h4.184zm20.231-8.174a.628.628 0 010-1.253h4.957c.345 0 .626.281.626.627v9.426a.628.628 0 01-.626.627h-4.811a.628.628 0 010-1.253h4.183V23.75h-4.33.001z" fill="#000"/></svg>