<svg width="91" height="17" fill="none" xmlns="http://www.w3.org/2000/svg"><path d="M9.086 2.438c.328-.856 1.54-.856 1.867 0l1.07 2.793a1 1 0 00.934.642h3.063c1.008 0 1.383 1.323.525 1.852l-2.18 1.343a1 1 0 00-.41 1.21l.897 2.34c.342.892-.645 1.71-1.459 1.208l-2.849-1.756a1 1 0 00-1.05 0l-2.848 1.756c-.815.502-1.801-.316-1.459-1.209l.896-2.34a1 1 0 00-.409-1.209l-2.18-1.343c-.858-.53-.483-1.852.525-1.852h3.063a1 1 0 00.934-.642l1.07-2.793zm17.681 0c.328-.856 1.54-.856 1.868 0l1.07 2.793a1 1 0 00.933.642h3.064c1.008 0 1.382 1.323.524 1.852l-2.18 1.343a1 1 0 00-.409 1.21l.896 2.34c.342.892-.644 1.71-1.458 1.208l-2.85-1.756a1 1 0 00-1.049 0l-2.85 1.756c-.813.502-1.8-.316-1.458-1.209l.897-2.34a1 1 0 00-.41-1.209l-2.18-1.343c-.858-.53-.483-1.852.525-1.852h3.063a1 1 0 00.934-.642l1.07-2.793zm17.681 0c.328-.856 1.54-.856 1.868 0l1.07 2.793a1 1 0 00.933.642h3.064c1.008 0 1.383 1.323.525 1.852l-2.18 1.343a1 1 0 00-.41 1.21l.897 2.34c.342.892-.645 1.71-1.459 1.208l-2.85-1.756a1 1 0 00-1.049 0l-2.849 1.756c-.814.502-1.8-.316-1.458-1.209l.896-2.34a1 1 0 00-.41-1.209l-2.18-1.343c-.857-.53-.483-1.852.525-1.852h3.064a1 1 0 00.934-.642l1.07-2.793zm17.682 0c.328-.856 1.54-.856 1.867 0l1.07 2.793a1 1 0 00.934.642h3.063c1.008 0 1.383 1.323.525 1.852l-2.18 1.343a1 1 0 00-.41 1.21l.897 2.34c.342.892-.645 1.71-1.459 1.208l-2.849-1.756a1 1 0 00-1.05 0l-2.848 1.756c-.815.502-1.801-.316-1.459-1.209l.896-2.34a1 1 0 00-.409-1.209l-2.18-1.343c-.858-.53-.483-1.852.525-1.852h3.063a1 1 0 00.934-.642l1.07-2.793zm17.681 0c.328-.856 1.54-.856 1.868 0l1.07 2.793a1 1 0 00.933.642h3.064c1.008 0 1.382 1.323.524 1.852l-2.18 1.343a1 1 0 00-.409 1.21l.896 2.34c.342.892-.644 1.71-1.458 1.208l-2.85-1.756a1 1 0 00-1.049 0l-2.85 1.756c-.813.502-1.8-.316-1.458-1.209l.897-2.34a1 1 0 00-.41-1.209l-2.18-1.343c-.858-.53-.483-1.852.525-1.852h3.064a1 1 0 00.933-.642l1.07-2.793z" fill="#F9896B"/></svg>