<svg width="780" height="183" fill="none" xmlns="http://www.w3.org/2000/svg"><path d="M53.68 61.45C15.994 73.09 2.19 93.12 0 101.68V183h780V80.281C734.354 50.607 630.792-6.859 581.714.674c-61.349 9.416-77.781 42.8-186.236 71.047C287.022 99.97 100.787 46.897 53.68 61.45z" fill="#4F46BA"/><path d="M114.988 129.653l.025.002 2.604.273c.182.019.35.108.469.248l.019.024-.025.012c.122.154.176.35.149.544a19.395 19.395 0 01-6.054 11.8 18.755 18.755 0 01-12.752 5.003 18.583 18.583 0 01-6.717-1.247l-.117-.046a.688.688 0 01-.39-.368l-.012-.028a.71.71 0 01-.012-.532l1.028-2.508a.705.705 0 01.89-.407l.024.009a14.736 14.736 0 0015.33-2.944 15.2 15.2 0 004.787-9.214.718.718 0 01.729-.622l.025.001zm61.49-10.641c2.22 0 3.956.678 5.065 1.979l.037.044v-1.101a.62.62 0 01.556-.586l.025-.002h2.962a.618.618 0 01.574.563l.002.025v16.444a10.015 10.015 0 01-2.017 6.45c-1.595 1.942-4.019 2.925-7.204 2.925-4.428 0-7.922-2.802-8.497-6.803a.618.618 0 01.421-.648l.024-.007 2.894-.681a.58.58 0 01.705.483 4.379 4.379 0 004.453 3.865c3.422 0 5.032-1.74 5.064-5.375l.001-.11v-1.441a6.496 6.496 0 01-5.065 2.17c-4.923 0-8.491-3.821-8.491-9.078a9.566 9.566 0 012.338-6.45 8.156 8.156 0 016.153-2.666zm-89.15 20h.073a2.171 2.171 0 012.145 2.146v.074a2.184 2.184 0 11-2.219-2.22zm140.426-20.228l.152.001c5.292.073 8.571 3.756 8.571 9.652 0 .312-.017.624-.05.934a.575.575 0 01-.544.519H223.28a4.835 4.835 0 004.904 4.694 4.41 4.41 0 004.502-3.141.58.58 0 01.7-.354l.023.007 2.511.885a.532.532 0 01.316.272l.012.025c.069.136.08.294.032.439a8.283 8.283 0 01-8.096 5.627 8.934 8.934 0 01-6.382-2.591 9.98 9.98 0 01-2.74-7.242c0-6.03 4.334-9.654 8.567-9.726l.125-.001zm-71.177 0h.006c5.387 0 8.732 3.698 8.732 9.653a9.1 9.1 0 01-.049.934.569.569 0 01-.545.519h-12.603a4.836 4.836 0 004.923 4.694 4.402 4.402 0 004.502-3.141.575.575 0 01.7-.354l.024.007 2.51.885a.536.536 0 01.328.297.567.567 0 010 .439 8.28 8.28 0 01-8.089 5.627 8.935 8.935 0 01-6.394-2.591 10.004 10.004 0 01-2.74-7.242c0-6.091 4.422-9.727 8.695-9.727zm-19.047-.007c2.418 0 4.372.588 5.819 1.744a6.32 6.32 0 012.084 3.024l.001.005a.395.395 0 01-.271.472l-.021.006-2.999.989a.559.559 0 01-.414 0 .438.438 0 01-.235-.272l-.016-.059c-.273-.976-1.166-2.544-3.948-2.544-1.979 0-3.167 1.138-3.167 2.238l.001.044c.015.716.404 1.614 2.111 1.956l.053.01 3.302.619c3.649.734 5.752 2.717 5.794 5.481l.001.084-.013-.049v.084c-.053 2.77-2.733 5.686-7.668 5.686-5.782 0-8.052-3.272-8.472-5.201a.413.413 0 01.288-.452l.021-.006 3.092-.965a.52.52 0 01.167 0 .521.521 0 01.227.049l.027.013a.429.429 0 01.228.279c.39 1.855 2.066 2.962 4.478 2.962 2.245 0 3.265-1.175 3.265-2.239 0-1.052-.889-1.832-2.422-2.154l-.052-.01-3.469-.674c-3.234-.613-5.25-2.623-5.25-5.238 0-3.185 3.419-5.882 7.458-5.882zm124.723-5.151h2.703a.619.619 0 01.58.595l.001.023v5.078h3.252a.619.619 0 01.575.594l.001.024v2.72a.582.582 0 01-.552.563l-.024.001h-3.252v9.023c0 1.496.593 2.115 2.12 2.115.309-.006.619-.029.925-.071l.115-.016a.57.57 0 01.469.13.623.623 0 01.198.415l.001.03v2.542a.584.584 0 01-.415.563 8.044 8.044 0 01-2.187.297l-.101-.001c-3.227 0-5.24-2.054-5.28-5.378l-.001-.101v-9.511h-2.814a.62.62 0 01-.58-.563l-.001-.025v-2.708a.618.618 0 01.557-.617l.024-.002h.756l.081-.001c.883-.026 2.239-.383 2.267-2.355l.001-.062v-2.684a.618.618 0 01.557-.616l.024-.002zm-52.526 5.155l.071.003h-.006c3.184 0 6.398 2.218 6.462 7.063l.001.147v11.454a.62.62 0 01-.557.585l-.025.002h-2.962a.62.62 0 01-.58-.563l-.001-.024v-11.083l-.001-.085c-.018-1.412-.498-3.681-3.406-3.681-2.15 0-3.681 1.673-3.711 4.107l-.001.074v10.668a.617.617 0 01-.556.585l-.025.002h-2.999a.617.617 0 01-.579-.563l-.002-.024V126.28c-.019-1.412-.498-3.681-3.408-3.681-2.235 0-3.748 1.661-3.778 4.142v10.707a.62.62 0 01-.557.585l-.024.002h-2.963a.617.617 0 01-.573-.563l-.002-.024v-17.551a.62.62 0 01.55-.586l.025-.002h2.851a.62.62 0 01.58.563l.001.025v1.057a6.658 6.658 0 015.009-2.17 5.917 5.917 0 015.338 3.024 6.696 6.696 0 015.828-3.027zm44.356 2.186a8.18 8.18 0 011.66 5.208l-.003.079v11.194a.618.618 0 01-.55.585l-.025.002h-2.998a.62.62 0 01-.581-.563l-.002-.024v-10.594c0-2.771-1.304-4.181-3.778-4.181a3.442 3.442 0 00-2.814 1.312 5.427 5.427 0 00-.966 3.216l.002.067v10.18a.62.62 0 01-.557.585l-.024.002h-2.994a.618.618 0 01-.579-.563l-.002-.024v-17.564a.618.618 0 01.557-.585l.024-.002h2.926a.618.618 0 01.573.563l.002.024v1.237a6.436 6.436 0 015.108-2.337 6.257 6.257 0 015.021 2.183zm-172.366 9.437h21.293a.723.723 0 01.717.705v2.69a.724.724 0 01-.693.729l-.024.001H81.717a.725.725 0 01-.717-.705v-2.715a.725.725 0 01.692-.705h.025zm95.274-7.693c-2.919 0-4.774 2.078-4.774 5.417s1.83 5.411 4.774 5.411c2.808 0 4.7-2.177 4.7-5.411 0-3.241-1.892-5.417-4.7-5.417zm-24.741 3.613l-.008.066h8.8c-.214-2.351-1.871-3.817-4.352-3.846h-.076a4.328 4.328 0 00-4.355 3.714l-.009.066zm71.186 0l-.008.066h8.801c-.215-2.351-1.872-3.817-4.353-3.846h-.076a4.328 4.328 0 00-4.355 3.714l-.009.066zm-117.761-16.26a.722.722 0 01.414.383.742.742 0 010 .563l-.927 2.474a.706.706 0 01-.897.433 14.73 14.73 0 00-14.224 2.541 15.32 15.32 0 00-5.021 8.003.718.718 0 01-.693.538h-.16l-2.549-.612a.712.712 0 01-.451-.335h-.012a.715.715 0 01-.08-.562 19.412 19.412 0 016.462-10.217 18.745 18.745 0 0118.138-3.209zm-9.43 10.686h21.291a.724.724 0 01.717.68l.001.025v2.666a.725.725 0 01-.693.729H96.244a.722.722 0 01-.71-.704l-.001-.025v-2.641a.724.724 0 01.686-.729l.025-.001zm14.78-8.132h.074a2.17 2.17 0 012.145 2.146v.074a2.182 2.182 0 11-2.219-2.22z" fill="#4FB58B"/></svg>