<svg width="90" height="90" fill="none" xmlns="http://www.w3.org/2000/svg"><rect width="90" height="90" rx="45" fill="#E77C40"/><path d="M30.204 37.224h3.744V54h-3.744l-7.992-10.512V54h-3.744V37.224h3.504l8.232 10.8v-10.8zm18.805 14.904c-1.456 1.376-3.168 2.064-5.136 2.064-1.952 0-3.568-.6-4.848-1.8-1.28-1.216-1.92-2.84-1.92-4.872s.648-3.648 1.944-4.848c1.312-1.2 2.856-1.8 4.632-1.8 1.776 0 3.28.536 4.512 1.608 1.248 1.072 1.872 2.544 1.872 4.416v1.92h-9.408c.112.704.48 1.28 1.104 1.728a3.533 3.533 0 002.112.672c1.264 0 2.304-.424 3.12-1.272l2.016 2.184zm-2.592-5.88c-.08-.768-.368-1.36-.864-1.776-.496-.416-1.104-.624-1.824-.624-.704 0-1.352.216-1.944.648a2.478 2.478 0 00-1.032 1.752h5.664zM59.364 54h-3.72l-4.392-12.912h3.72l2.52 7.8 2.52-7.8h3.48l2.52 7.8 2.52-7.8h3.744L67.884 54H64.14l-2.376-7.032-2.4 7.032z" fill="#fff"/></svg>