<svg width="131" height="23" fill="none" xmlns="http://www.w3.org/2000/svg"><g clip-path="url(#clip0_1483_510)" fill="#F3CD03"><path d="M20.63 8.42a.918.918 0 00-.795-.62l-5.23-.416-2.262-5.01a.915.915 0 00-1.672 0L8.41 7.384l-5.23.415a.917.917 0 00-.567 1.571l3.864 3.768-1.367 5.917a.917.917 0 001.404.97l4.994-3.33 4.994 3.33a.918.918 0 001.392-1.014l-1.678-5.87 4.16-3.745a.919.919 0 00.256-.977zm27.016 0a.918.918 0 00-.797-.62l-5.229-.416-2.262-5.01a.916.916 0 00-1.672 0l-2.262 5.01-5.23.415a.917.917 0 00-.567 1.571l3.864 3.768-1.367 5.917a.918.918 0 001.404.97l4.994-3.33 4.994 3.33a.918.918 0 001.392-1.014l-1.678-5.87 4.16-3.745a.919.919 0 00.256-.977zm27.011 0a.918.918 0 00-.796-.62l-5.23-.416-2.262-5.01a.916.916 0 00-1.672 0l-2.263 5.01-5.229.415a.917.917 0 00-.567 1.571l3.864 3.768-1.367 5.917a.918.918 0 001.404.97l4.994-3.33 4.994 3.33a.918.918 0 001.392-1.014l-1.678-5.87 4.16-3.745a.919.919 0 00.256-.977zm27.014 0a.918.918 0 00-.796-.62l-5.23-.416-2.262-5.01a.916.916 0 00-1.672 0l-2.262 5.01-5.23.415a.917.917 0 00-.567 1.571l3.864 3.768-1.367 5.917a.917.917 0 001.404.97l4.994-3.33 4.994 3.33a.918.918 0 001.392-1.014l-1.678-5.87 4.161-3.745a.92.92 0 00.255-.977zm12.861 4.718l-1.367 5.918a.917.917 0 001.403.97l4.994-3.33 4.994 3.33a.92.92 0 001.392-1.015l-1.678-5.87 4.161-3.745a.916.916 0 00-.051-1.405.915.915 0 00-.491-.19l-5.229-.417-2.263-5.01a.915.915 0 00-1.671 0l-2.263 5.01-5.229.415a.916.916 0 00-.567 1.572l3.865 3.767zm2.617-3.968a.916.916 0 00.763-.538l1.65-3.651 1.65 3.651a.915.915 0 00.763.538l3.643.289-3 2.7a.92.92 0 00-.269.934l1.15 4.022-3.427-2.285a.915.915 0 00-1.017 0l-3.581 2.388.963-4.17a.924.924 0 00-.253-.862l-2.787-2.717 3.752-.3z"/></g><defs><clipPath id="clip0_1483_510"><path fill="#fff" transform="translate(.5)" d="M0 0h130.068v22.014H0z"/></clipPath></defs></svg>