<?xml version="1.0" encoding="utf-8"?><svg xmlns="http://www.w3.org/2000/svg" xmlns:xlink="http://www.w3.org/1999/xlink"><symbol fill="none" viewBox="0 0 12 10" id="arrow" xmlns="http://www.w3.org/2000/svg"><path fill-rule="evenodd" clip-rule="evenodd" d="M0 5c0-.19.079-.371.22-.505a.77.77 0 01.53-.21h8.688l-3.22-3.064a.698.698 0 01-.22-.506c0-.19.08-.371.22-.506A.77.77 0 016.75 0c.2 0 .39.075.531.21l4.5 4.284A.713.713 0 0112 5a.685.685 0 01-.22.506L7.28 9.79a.77.77 0 01-.53.209.77.77 0 01-.532-.21.698.698 0 01-.22-.505c0-.19.08-.372.22-.506l3.22-3.065H.75a.77.77 0 01-.53-.209A.697.697 0 010 5z" fill="#fff"/></symbol><symbol fill="none" viewBox="0 0 24 23" id="cart" xmlns="http://www.w3.org/2000/svg"><g clip-path="url(#bclip0_1483_14)" fill="#fff"><path d="M8 22.4a1.6 1.6 0 100-3.2 1.6 1.6 0 000 3.2zM19.2 22.4a1.6 1.6 0 100-3.2 1.6 1.6 0 000 3.2zM22.4 4H4.656L4 .64A.8.8 0 003.2 0H0v1.6h2.544L5.6 16.96a.8.8 0 00.8.64h14.4V16H7.056L6.4 12.8h14.4a.8.8 0 00.8-.624l1.6-7.2A.8.8 0 0022.4 4zm-2.24 7.2H6.096l-1.12-5.6H21.4l-1.24 5.6z"/></g><defs><clipPath id="bclip0_1483_14"><path fill="#fff" d="M0 0h24v22.4H0z"/></clipPath></defs></symbol><symbol fill="none" viewBox="0 0 33 32" id="check" xmlns="http://www.w3.org/2000/svg"><rect x=".5" width="32" height="32" rx="16" fill="#2DC071"/><g clip-path="url(#cclip0_1483_646)"><path fill-rule="evenodd" clip-rule="evenodd" d="M24.796 10.204a.698.698 0 010 .985l-9.738 9.738a.694.694 0 01-.985 0l-4.869-4.869a.697.697 0 01.985-.985l4.376 4.378 9.246-9.247a.698.698 0 01.985 0z" fill="#fff"/></g><defs><clipPath id="cclip0_1483_646"><path fill="#fff" transform="translate(8.5 10)" d="M0 0h16v11H0z"/></clipPath></defs></symbol><symbol fill="none" viewBox="0 0 24 24" id="facebook" xmlns="http://www.w3.org/2000/svg"><path fill-rule="evenodd" clip-rule="evenodd" d="M23.5 11.57C23.5 5.18 18.352 0 12.001 0 5.648.001.5 5.18.5 11.572c0 5.774 4.206 10.56 9.702 11.428v-8.085H7.284v-3.343h2.92V9.02c0-2.9 1.718-4.5 4.344-4.5 1.26 0 2.575.225 2.575.225v2.846h-1.45c-1.428 0-1.873.893-1.873 1.808v2.17h3.188l-.51 3.344h-2.68v8.085c5.496-.869 9.702-5.655 9.702-11.429z" fill="#23A6F0"/></symbol><symbol fill="none" viewBox="0 0 24 24" id="instagram" xmlns="http://www.w3.org/2000/svg"><path d="M12.5 1c-2.985 0-3.36.014-4.533.066-1.173.055-1.972.24-2.672.511-.734.277-1.4.71-1.948 1.27a5.4 5.4 0 00-1.27 1.948c-.272.699-.457 1.499-.511 2.668C1.514 8.638 1.5 9.013 1.5 12c0 2.987.014 3.36.066 4.534.055 1.171.24 1.97.512 2.67a5.403 5.403 0 001.269 1.948c.61.612 1.223.989 1.947 1.27.7.272 1.498.457 2.67.511 1.174.052 1.548.066 4.536.066 2.988 0 3.36-.014 4.535-.066 1.17-.055 1.971-.24 2.671-.512a5.386 5.386 0 001.947-1.269 5.404 5.404 0 001.27-1.948c.27-.7.456-1.499.511-2.67.052-1.173.066-1.547.066-4.535 0-2.988-.014-3.362-.066-4.536-.055-1.17-.24-1.97-.512-2.669a5.4 5.4 0 00-1.269-1.948 5.379 5.379 0 00-1.948-1.27c-.701-.272-1.502-.457-2.672-.511C15.86 1.014 15.486 1 12.497 1h.004-.001zm-.986 1.983h.987c2.937 0 3.285.01 4.444.063 1.073.048 1.656.228 2.044.378.512.2.88.439 1.265.824a3.4 3.4 0 01.822 1.265c.151.386.33.97.378 2.042.054 1.159.065 1.507.065 4.442 0 2.936-.011 3.285-.065 4.444-.048 1.073-.228 1.654-.378 2.042-.177.478-.458.91-.824 1.264-.385.385-.75.623-1.265.822-.385.151-.968.33-2.042.38-1.159.052-1.507.064-4.444.064-2.937 0-3.286-.012-4.445-.065-1.072-.049-1.654-.228-2.042-.379a3.407 3.407 0 01-1.265-.822 3.41 3.41 0 01-.825-1.265c-.15-.387-.33-.97-.378-2.042-.052-1.16-.063-1.507-.063-4.446 0-2.937.01-3.283.063-4.442.05-1.073.228-1.656.38-2.043.199-.513.438-.88.823-1.265.385-.385.75-.623 1.265-.823.388-.15.97-.33 2.042-.38 1.015-.046 1.408-.06 3.458-.061v.003zm6.859 1.826a1.32 1.32 0 100 2.64 1.32 1.32 0 000-2.64zM12.5 6.35a5.65 5.65 0 10-.176 11.3 5.65 5.65 0 00.176-11.3zm0 1.982a3.667 3.667 0 110 7.334 3.667 3.667 0 010-7.334z" fill="#23A6F0"/></symbol><symbol fill="none" viewBox="0 0 24 31" id="map" xmlns="http://www.w3.org/2000/svg"><g clip-path="url(#fclip0_1483_820)" fill="#fff"><path d="M12 18.25c3.309 0 6-2.691 6-6 0-3.31-2.691-6-6-6s-6 2.69-6 6c0 3.309 2.691 6 6 6zm0-9c1.655 0 3 1.345 3 3 0 1.654-1.345 3-3 3s-3-1.346-3-3c0-1.655 1.345-3 3-3z"/><path d="M11.13 29.97a1.497 1.497 0 001.74 0c.456-.322 11.173-8.06 11.13-17.72 0-6.617-5.384-12-12-12S0 5.633 0 12.242c-.043 9.668 10.674 17.406 11.13 17.729zM12 3.25c4.963 0 9 4.036 9 9.007.031 6.657-6.582 12.635-9 14.595-2.416-1.962-9.031-7.94-9-14.602 0-4.964 4.037-9 9-9z"/></g><defs><clipPath id="fclip0_1483_820"><path fill="#fff" transform="translate(0 .25)" d="M0 0h24v30H0z"/></clipPath></defs></symbol><symbol fill="none" viewBox="0 0 90 90" id="new" xmlns="http://www.w3.org/2000/svg"><rect width="90" height="90" rx="45" fill="#E77C40"/><path d="M30.204 37.224h3.744V54h-3.744l-7.992-10.512V54h-3.744V37.224h3.504l8.232 10.8v-10.8zm18.805 14.904c-1.456 1.376-3.168 2.064-5.136 2.064-1.952 0-3.568-.6-4.848-1.8-1.28-1.216-1.92-2.84-1.92-4.872s.648-3.648 1.944-4.848c1.312-1.2 2.856-1.8 4.632-1.8 1.776 0 3.28.536 4.512 1.608 1.248 1.072 1.872 2.544 1.872 4.416v1.92h-9.408c.112.704.48 1.28 1.104 1.728a3.533 3.533 0 002.112.672c1.264 0 2.304-.424 3.12-1.272l2.016 2.184zm-2.592-5.88c-.08-.768-.368-1.36-.864-1.776-.496-.416-1.104-.624-1.824-.624-.704 0-1.352.216-1.944.648a2.478 2.478 0 00-1.032 1.752h5.664zM59.364 54h-3.72l-4.392-12.912h3.72l2.52 7.8 2.52-7.8h3.48l2.52 7.8 2.52-7.8h3.744L67.884 54H64.14l-2.376-7.032-2.4 7.032z" fill="#fff"/></symbol><symbol fill="none" viewBox="0 0 24 25" id="phone" xmlns="http://www.w3.org/2000/svg"><g clip-path="url(#hclip0_1483_816)"><path d="M18.848 12.977a1.2 1.2 0 00-1.697 0l-1.912 1.912c-.887-.263-2.542-.864-3.59-1.912-1.05-1.05-1.65-2.704-1.913-3.59l1.912-1.913a1.2 1.2 0 000-1.697l-4.8-4.8a1.199 1.199 0 00-1.696 0L1.897 4.23a2.398 2.398 0 00-.703 1.722c.028 1.709.48 7.644 5.158 12.322 4.677 4.677 10.612 5.128 12.322 5.157h.034c.633 0 1.232-.25 1.686-.703l3.254-3.254a1.2 1.2 0 000-1.697l-4.8-4.801zm-.152 8.054c-1.498-.025-6.622-.427-10.648-4.454-4.039-4.04-4.43-9.181-4.454-10.649L6 3.522l3.103 3.103-1.551 1.552a1.2 1.2 0 00-.327 1.094c.029.138.733 3.41 2.725 5.402 1.992 1.993 5.265 2.697 5.403 2.726a1.19 1.19 0 001.094-.326L18 15.522l3.103 3.103-2.407 2.406z" fill="#fff"/></g><defs><clipPath id="hclip0_1483_816"><path fill="#fff" transform="translate(0 .625)" d="M0 0h24v24H0z"/></clipPath></defs></symbol><symbol fill="none" viewBox="0 0 24 24" id="search" xmlns="http://www.w3.org/2000/svg"><g clip-path="url(#iclip0_1483_12)"><path fill-rule="evenodd" clip-rule="evenodd" d="M17.19 15.478l6.456 6.456a1.21 1.21 0 01-1.713 1.71l-6.455-6.455a9.6 9.6 0 111.71-1.711h.002zM9.6 16.799a7.2 7.2 0 100-14.4 7.2 7.2 0 000 14.4z" fill="#fff"/></g><defs><clipPath id="iclip0_1483_12"><path fill="#fff" d="M0 0h24v24H0z"/></clipPath></defs></symbol><symbol fill="none" viewBox="0 0 24 27" id="send" xmlns="http://www.w3.org/2000/svg"><g clip-path="url(#jclip0_1483_824)"><path fill-rule="evenodd" clip-rule="evenodd" d="M-.919 6.592A3.345 3.345 0 01.223 4.727 3.2 3.2 0 012.25 4h19.5a3.2 3.2 0 012.026.727c.576.471.979 1.128 1.143 1.865L12 14.69-.919 6.592zM-1 8.495v11.84l9.43-5.93L-1 8.495zm10.987 6.888L-.69 22.095c.264.57.68 1.052 1.2 1.39A3.19 3.19 0 002.25 24h19.5c.616 0 1.218-.179 1.738-.517.52-.337.937-.82 1.2-1.39l-10.676-6.711L12 16.643l-2.013-1.261v.001zm5.583-.976L25 20.335V8.495l-9.43 5.91v.002z" fill="#fff"/></g><defs><clipPath id="jclip0_1483_824"><path fill="#fff" transform="translate(0 .875)" d="M0 0h24v26H0z"/></clipPath></defs></symbol><symbol fill="none" viewBox="0 0 131 23" id="stars" xmlns="http://www.w3.org/2000/svg"><g clip-path="url(#kclip0_1483_510)" fill="#F3CD03"><path d="M20.63 8.42a.918.918 0 00-.795-.62l-5.23-.416-2.262-5.01a.915.915 0 00-1.672 0L8.41 7.384l-5.23.415a.917.917 0 00-.567 1.571l3.864 3.768-1.367 5.917a.917.917 0 001.404.97l4.994-3.33 4.994 3.33a.918.918 0 001.392-1.014l-1.678-5.87 4.16-3.745a.919.919 0 00.256-.977zM47.646 8.42a.918.918 0 00-.797-.62l-5.229-.416-2.262-5.01a.916.916 0 00-1.672 0l-2.262 5.01-5.23.415a.917.917 0 00-.567 1.571l3.864 3.768-1.367 5.917a.918.918 0 001.404.97l4.994-3.33 4.994 3.33a.918.918 0 001.392-1.014l-1.678-5.87 4.16-3.745a.919.919 0 00.256-.977zM74.657 8.42a.918.918 0 00-.796-.62l-5.23-.416-2.262-5.01a.916.916 0 00-1.672 0l-2.263 5.01-5.229.415a.917.917 0 00-.567 1.571l3.864 3.768-1.367 5.917a.918.918 0 001.404.97l4.994-3.33 4.994 3.33a.918.918 0 001.392-1.014l-1.678-5.87 4.16-3.745a.919.919 0 00.256-.977zM101.671 8.42a.918.918 0 00-.796-.62l-5.23-.416-2.262-5.01a.916.916 0 00-1.672 0l-2.262 5.01-5.23.415a.917.917 0 00-.567 1.571l3.864 3.768-1.367 5.917a.917.917 0 001.404.97l4.994-3.33 4.994 3.33a.918.918 0 001.392-1.014l-1.678-5.87 4.161-3.745a.92.92 0 00.255-.977zM114.532 13.138l-1.367 5.918a.917.917 0 001.403.97l4.994-3.33 4.994 3.33a.92.92 0 001.392-1.015l-1.678-5.87 4.161-3.745a.916.916 0 00-.051-1.405.915.915 0 00-.491-.19l-5.229-.417-2.263-5.01a.915.915 0 00-1.671 0l-2.263 5.01-5.229.415a.916.916 0 00-.567 1.572l3.865 3.767zm2.617-3.968a.916.916 0 00.763-.538l1.65-3.651 1.65 3.651a.915.915 0 00.763.538l3.643.289-3 2.7a.92.92 0 00-.269.934l1.15 4.022-3.427-2.285a.915.915 0 00-1.017 0l-3.581 2.388.963-4.17a.924.924 0 00-.253-.862l-2.787-2.717 3.752-.3z"/></g><defs><clipPath id="kclip0_1483_510"><path fill="#fff" transform="translate(.5)" d="M0 0h130.068v22.014H0z"/></clipPath></defs></symbol><symbol fill="none" viewBox="0 0 24 20" id="twitter" xmlns="http://www.w3.org/2000/svg"><path d="M8.41 19c8.303 0 12.845-6.927 12.845-12.923 0-.194 0-.39-.009-.585A9.228 9.228 0 0023.5 3.136a9.105 9.105 0 01-2.597.717 4.565 4.565 0 001.99-2.516c-.888.53-1.858.9-2.87 1.098a4.491 4.491 0 00-5.425-.897 4.537 4.537 0 00-1.985 2.134 4.579 4.579 0 00-.285 2.909c-1.795-.091-3.55-.56-5.153-1.378a12.839 12.839 0 01-4.151-3.37 4.581 4.581 0 00-.492 3.312A4.554 4.554 0 004.423 7.9a4.545 4.545 0 01-2.043-.565v.063a4.572 4.572 0 001.021 2.876A4.516 4.516 0 006 11.853a4.374 4.374 0 01-1.19.16c-.283 0-.565-.026-.844-.08.289.903.85 1.692 1.607 2.258.756.565 1.669.878 2.61.895a9.019 9.019 0 01-5.61 1.948 8.62 8.62 0 01-1.072-.062A12.783 12.783 0 008.41 19z" fill="#23A6F0"/></symbol></svg>